<?xml version="1.0" encoding="UTF-8"?>
<svg viewBox="0 0 142.97 372.55" xmlns="http://www.w3.org/2000/svg">
<g transform="translate(0 -3.148)" data-name="Layer 2">
<g transform="translate(0)" data-name="Layer 1">
<path transform="translate(123.71 -153.27)" d="m12.764 223.19s2.505-4.618 3.371-5.652-1.328-3.585-3.088-0.866-2.843 4.474-2.843 4.474z" fill="#eea886" data-name="Path 1018"/>
<path transform="translate(120.17 -119.27)" d="m13.745 193.84 8.876-20.06a2.364 2.364 0 0 0-1.651-3.218l-10.47-2.812a2.575 2.575 0 0 0-3.112 1.556l-7.226 20.744a2.375 2.375 0 0 0 1.787 3.071l8.821 2.119a2.6 2.6 0 0 0 2.975-1.4z" fill="#ed1846" data-name="Path 1019"/>
<path transform="translate(99.033 -145.21)" d="M37.949,218.308s1.054-1.715-1.792-4.944c-3.781-4.289-9.164-9.323-10.55-9.236-2,.13-1.732,1.625.866,3.911s3.464,3.031,3.464,3.031-5.732-3.152-7.412-3.062-2.52,1.613-1.663,2.309a26.6,26.6,0,0,0,3.086,1.856s-2.6-1.019-3.316-.167c-.54.629-1.131,1.608,1.068,3.08,0,0-2.477.99-.563,3.152s2.075,3.4,1.524,5.978.846,6.823.846,6.823l8.659-.522s1.556-6.388,2.742-7.891S37.949,218.308,37.949,218.308Z" fill="#eea886" data-name="Path 1020"/>
<path transform="translate(86.384 -124.2)" d="M42.337,175.436a.973.973,0,0,0,.883,1.074,1.01,1.01,0,0,0,1.155-.831.973.973,0,0,0-.883-1.071A1.007,1.007,0,0,0,42.337,175.436Z" fill="#38373d" data-name="Path 1021"/>
<path transform="translate(-73.736 -873.37)" d="m154.15 1228.8s4.3 6.062 10.325 7.354 11.967 3.386 12.01 6.962-17.428 5.712-24.326 2.1c-10.3-5.383-11.341-3.752-12.484-6.451s1.371-9.889 1.3-10.743c-0.093-1.055 13.175 0.778 13.175 0.778z" fill="#232729" data-name="Path 1022"/>
<path transform="translate(-149.5 -864.41)" d="M229.247,1216.895a24.126,24.126,0,0,1,.667,2.985c-.118.063-13.583,1.57-13.176-.774.329-1.9.8-3.966.8-3.966Z" fill="#81807e" data-name="Path 1023"/>
<path transform="translate(-235.32 -873.24)" d="m282.67 1229.1s3.065 5.773 8.3 7.756c5.6 2.107 10.1 4.526 9.987 8.013s-13.684 7.02-23.567 0.329c-6.243-4.229-8.223-4.249-9.236-6.91s1.732-9.58 1.7-10.417c-0.031-1.035 12.816 1.229 12.816 1.229z" fill="#232729" data-name="Path 1024"/>
<path transform="translate(-296.23 -863.99)" d="M343.74,1216.809a26.838,26.838,0,0,1-.153,3c-.115.055-13.133,1.065-12.8-1.229a18.213,18.213,0,0,1,1.264-4.024Z" fill="#81807e" data-name="Path 1025"/>
<path transform="translate(-86.626 -400.89)" d="m181.86 576.99s8.027 41.994 10.8 57.277c2.35 13.009 4.214 32.616 3.086 42-1.394 11.626-26.748 74-26.018 77.407s-19.093 1.538-19.093 1.538 19.477-73.791 16.822-86.3c-1.969-9.265-12.671-65.215-15.312-62.057s-5.923 58.083-7.88 67.2-7.966 81.159-7.966 81.159-13.436 1.865-17.03-0.993c0 0-1.634-61.515-0.387-78.608 0.476-6.515-8.116-78.108 2.886-106.93 5.825-15.238 60.092 8.309 60.092 8.309z" fill="#065482" data-name="Path 1026"/>
<path transform="translate(-30.788 -146.66)" d="M30.8,278.583c0,.7,1.414,3.524,3.671,7.577,3.3-6.212,5.9-11.315,6.743-13.191C44,266.79,58.336,252.62,58.336,252.62a.413.413,0,0,0,0,.046.038.038,0,0,1,0,.017.576.576,0,0,1,.017.058.53.53,0,0,0,.035.121.444.444,0,0,1,.02.075.506.506,0,0,1,.017.058c.782,2.733,5.574,19.835,5.75,28.258.2,9.17,1.068,35.165,1.068,35.165a362.238,362.238,0,0,0,60.787,6.35s.323-7.216.445-18.057c.049-4.537-.823-13.049-.577-20.949v-.528c.153-4.33-.266-8.627.595-11.751l.719-4.174c1.9,6.108,11.834,17,11.834,17,15.941,19.466,22.571-48.93,25.836-53.534L150.028,226.9l-7.533,28.379-3.443-9.329h0l-3.669-10c-.416-.312-4.8-14.181-8.371-15.771-3.631-1.625-12.74-5.461-16.706-7.5-2.02-1.039-3.934-1.992-5.585-2.7l-.254-.107h0l-4.549-1.954h0l-1.189-.107c-3.813-.341-15.662-1.385-19.627-1.6-.326-.02-.6-.032-.811-.035s-.318,0-.4,0a51.383,51.383,0,0,0-6.157,1.977h0l-.367.133-.453.162-.851.306-1.764.649-.626.231c-6.422,2.4-13.6,5.64-15.532,6.543-3.83,1.8-5.383,5.146-8.928,15.05C37.843,247.41,31.031,272.2,30.82,278.306A1.335,1.335,0,0,0,30.8,278.583Z" fill="#00c395" data-name="Path 1027"/>
<g transform="translate(43.912 3.148)" data-name="Group 199">
<path transform="translate(-385.01 -551.65)" d="m402.69 559.08c-10.141 0-13.922 7.219-14.117 20.571-0.072 5 2.176 9.955 3.988 13.119a9.908 9.908 0 0 1 0.946 7.731l-2.226 7.537c-1.515 6.991 1.806 10.825 6.708 12.218a9.522 9.522 0 0 0 7.456-1.215c2.521-1.629 2.728-5.131 2.259-8.1l-0.575-2.149a5.346 5.346 0 0 1 3.831-6.654c7.807-1.707 8.926-9.847 11.017-22.486 2.18-13.178-9.149-20.572-19.287-20.572z" fill="#eea886" data-name="Path 777"/>
<path transform="translate(-386.85 -555.48)" d="m428.14 557.04-5.815 1.769a11.529 11.529 0 0 1-6.561 0.042l-11.61-3.369c-7.033 0-18.647 3.972-17.179 14.119l1.3 7.177a6.448 6.448 0 0 0 5.811 5.261 2.276 2.276 0 0 0 4.472-0.6 6.9 6.9 0 0 1 5.431-6.708 25.372 25.372 0 0 1 12.342 0.087c8.07 2.168 16.578-2.833 17.384-11.149q0.077-0.791 0.076-1.6c-4e-3 -3.353-2.775-5.823-5.651-5.029z" fill="#065482" data-name="Path 778"/>
<path transform="translate(-386.78 -543.8)" d="m395.94 572.04c0 3.1-1.153 5.6-4.133 5.6s-4.894-4.257-4.894-7.353 1.914-3.858 4.894-3.858 4.133 2.513 4.133 5.611z" fill="#eea886" data-name="Path 779"/>
</g>
<path transform="translate(-192.34 -172.97)" d="m256.18 243.15s-1.772 6.668-1.134 8.532c0 0 3.9 1.334 6.7-0.335a29.067 29.067 0 0 0-5.566-8.197z" fill="#323657" data-name="Path 1033"/>
<path transform="translate(-185.01 -172.97)" d="m258.25 251.21s-5.522 4.012-16.643 0.7l7.265-8.76z" fill="#e6a563" data-name="Path 1034"/>
<path transform="translate(-192.04 -172.96)" d="m262.43 249.81s-3.628 2.635-10.934 0.459l4.387-7.126z" fill="#d9c8c0" data-name="Path 1035"/>
<path transform="translate(-343.14 -339.24)" d="m383.27 518.57a26.288 26.288 0 0 1-8.76 6.186l-18.184-30.757 9.433-17.125s17.084 38.697 17.511 41.696z" fill="#3c4145" data-name="Path 1036"/>
<path transform="translate(-233.6 -142.38)" d="m274.12 203.95 6.662-3.8s0.188 3.435 16.683 12.411l-4.685 12.411z" fill="#f5e2d9" data-name="Path 1037"/>
<path transform="translate(-176.24 -146.65)" d="M244.5,206.15s-.26,3.709-4.387,10.68l9.144,11.214.667-18.184Z" fill="#f5e2d9" data-name="Path 1038"/>
<path transform="translate(-302.51 -431.15)" d="m338.26 606.09s2.162 5.008 5.017 5.8 5.553 2.4 6.789 4.272-13.97 7.124-13.97 7.124-6.249-9.216-5.709-13.208 7.873-3.988 7.873-3.988z" fill="#de9d7d" data-name="Path 1039"/>
<path transform="translate(-350.73 -261.57)" d="m378.38 367.9s-9.4 12.908-7.952 25.247l22.052 47.1s-6.979 5.66-12.885 7.984c0 0-25.773-47.143-28.864-54.743 9e-3 1e-3 10.18-28.479 27.649-25.588z" fill="#00c395" data-name="Path 1040"/>
<path transform="translate(-289.62 -455.58)" d="m338.54 640.43-19.9 9.219 0.762 7.473 21.226-12.844z" fill="#1e3a5e" data-name="Path 1041"/>
<path transform="translate(-286.83 -856.95)" d="M336.834,1211.273s-11.623,2.451-17.693-.993l-.361-5.62a75.3,75.3,0,0,0,19.018.724Z" fill="#172c47" data-name="Path 1042"/>
<path transform="translate(-138.32 -856.95)" d="M221.86,1210.32s-4.269,3.646-20.06.953l1.732-6.613s10.056,2.309,19.521,0Z" fill="#172c47" data-name="Path 1043"/>
<path transform="translate(-.108 -244.71)" d="M108.37,344c0,2.765.921,21.143.921,21.143l2.52-11.8Z" fill="#00a880" data-name="Path 1044"/>
</g>
<path transform="translate(-51.363 -151.5)" d="m116.83 194.82s3.631 1.992 9.957 0.352c0 0-6.912 5.154-9.957-0.352z" fill="#fff"/>
</g>
</svg>
