<svg xmlns="http://www.w3.org/2000/svg" width="106.664" height="34.461" viewBox="0 0 106.664 34.461">
    <defs>
        <style>
            .cls-1,.cls-2{fill:#bed2dd}.cls-1{fill-rule:evenodd}
        </style>
    </defs>
    <g id="Aparat" transform="translate(-381.489 311.14)">
        <g id="__x0023_Layer_x0020_3" transform="translate(-1638.511 -5090.821)">
            <g id="_182541632" transform="translate(2020 4779.68)">
                <path id="Path_639" d="M5131.164 4869a15.164 15.164 0 1 1-15.164 15.164 15.168 15.168 0 0 1 15.164-15.164zm-.048 13.418a1.937 1.937 0 1 1-1.937 1.938 1.949 1.949 0 0 1 1.937-1.938zm4.5 4.257a4.233 4.233 0 1 1-4.233 4.233 4.246 4.246 0 0 1 4.229-4.233zm2.1-11.337a4.245 4.245 0 1 1-4.233 4.257 4.247 4.247 0 0 1 4.234-4.257zm-10.739-2.081a4.233 4.233 0 1 1-4.233 4.233 4.246 4.246 0 0 1 4.234-4.233zm-2.248 11.337a4.245 4.245 0 1 1-4.233 4.257 4.247 4.247 0 0 1 4.234-4.257z" class="cls-1" data-name="Path 639" transform="translate(-5041.951 -4866.864)"/>
                <path id="Path_640" d="M6198.836 4984.141c-1.028-4.305-2.081-6.96-5.836-10.141 2.607.335 4.712.789 6.075 2.87 1.363 2.105.717 4.736-.239 7.271z" class="cls-1" data-name="Path 640" transform="translate(-6093.192 -4969.353)"/>
                <path id="Path_641" d="M5890 5922c-2.966 3.276-5.167 5.118-10 6.1 2.439.957 4.521 1.579 6.721.383 2.2-1.173 2.894-3.804 3.279-6.483z" class="cls-1" data-name="Path 641" transform="translate(-5787.678 -5894.678)"/>
                <path id="Path_642" d="M5033.465 5625c1.2 4.233 2.368 6.864 6.242 9.878-2.606-.215-4.735-.574-6.194-2.607-1.435-2.033-.913-4.712-.048-7.271z" class="cls-1" data-name="Path 642" transform="translate(-4960.564 -5604.782)"/>
                <path id="Path_643" d="M5214 4786.6c3.109-3.157 5.382-4.927 10.237-5.716-2.392-1.052-4.449-1.746-6.7-.646s-3.037 3.683-3.537 6.362z" class="cls-1" data-name="Path 643" transform="translate(-5137.607 -4779.68)"/>
                <path id="Path_644" d="M4301.418 4876.063c0 .024-5.716-.048-7.989-.072-1.937-.024-5.333 2.033-5.429 4.951l3.325 1.961c.239-1.028.311-3.109 2.2-3.42.694-.12 2.87-.024 4.664-.048z" class="cls-2" data-name="Path 644" transform="translate(-4233.755 -4873.688)"/>
                <path id="Path_645" d="M4496.97 5071l-3.97 3.611v13.92h3.97z" class="cls-2" data-name="Path 645" transform="translate(-4433.852 -5064.032)"/>
                <path id="Path_646" d="M4095.18 5305l-3.564 3.277v2.416c0 1.722-.622 2.583-1.889 2.583H4087v3.54h3.516a4.559 4.559 0 0 0 3.684-1.6 5.1 5.1 0 0 0 1-3.492z" class="cls-2" data-name="Path 646" transform="translate(-4037.562 -5292.436)"/>
                <path id="Path_647" d="M3798.989 5083.9h-4.257V5070l-3.731 3.563v9.52c0 2.894 1.507 4.353 4.5 4.353h3.492z" class="cls-2" data-name="Path 647" transform="translate(-3748.642 -5063.056)"/>
                <path id="Path_648" d="M3434.08 5265l-3.827 3.683-.024 7.271c0 2.774-1.674 3.014-3.229 3.492l2.248 3.42c3.325-.335 4.832-3.516 4.832-7.271z" class="cls-2" data-name="Path 648" transform="translate(-3393.348 -5253.393)"/>
                <path id="Path_649" d="M2047.41 5283l-3.8 3.277.024 2.894a2.339 2.339 0 0 1-1.746 2.535 20.633 20.633 0 0 1-3.444.072l-10.165.1c-1.7.024-4.807.239-4.784-2.774v-2.7L2020 5289l.024 2.559c.024 3.109 3.755 3.779 6.553 3.755l15.283-.071c3.42-.024 5.573-2.129 5.549-4.545z" class="cls-2" data-name="Path 649" transform="translate(-2020 -5270.962)"/>
                <path id="Path_650" d="M2180.9 5268h-8.9v3.492l12.007.048z" class="cls-2" data-name="Path 650" transform="translate(-2168.365 -5256.32)"/>
                <path id="Path_651" d="M3829.974 5864H3820l3.373 3.276c2.009 0 3.013-.023 5.022-.023a3.573 3.573 0 0 1 1.459.454l.909.694 2.894-2.75a4.973 4.973 0 0 0-3.683-1.651z" class="cls-2" data-name="Path 651" transform="translate(-3776.948 -5838.065)"/>
                <path id="Path_652" d="M3236.97 5071l-3.97 3.611v13.92h3.97z" class="cls-2" data-name="Path 652" transform="translate(-3203.988 -5064.032)"/>
                <path id="Path_653" d="M4101 6040.009c1.7-.239 2.607-.263 3.349.526l-1.388 1.435z" class="cls-1" data-name="Path 653" transform="translate(-4051.228 -6009.722)"/>
                <path id="Path_654" d="M2025.435 5879.372a.553.553 0 0 0 .1-.239 1.563 1.563 0 0 1-.5.1.971.971 0 0 1-1.029-.933.956.956 0 0 1 .072-.358.86.86 0 0 1 .191-.359 1.06 1.06 0 0 1 .813-.311h.024a1.214 1.214 0 0 1 .861.359 1.305 1.305 0 0 1 .215.669v.383h.383v.55h-.407a.941.941 0 0 1-.311.5 1.248 1.248 0 0 1-.837.239h-.1v-.431a.181.181 0 0 0 .1.024.6.6 0 0 0 .425-.193zm-.383-1.7a.621.621 0 0 0-.239.1 1.025 1.025 0 0 0-.144.168.638.638 0 0 0-.072.287 1.018 1.018 0 0 0 .048.263.45.45 0 0 0 .454.263.354.354 0 0 0 .167-.024.247.247 0 0 0 .167-.12.541.541 0 0 0 .12-.359.528.528 0 0 0-.024-.191.413.413 0 0 0-.407-.383zm3.229-.358h.622v1.244a.619.619 0 0 1-.335.574.779.779 0 0 1-.335.1h-1.89l-.311-.55h1.937c.191 0 .311-.1.311-.263v-1.1zm-.861 2.2h.526v.431h-.526zm.885 0h.526v.431h-.526zm1.028-.287v-.55h1.7v-.12a.7.7 0 0 0-.1-.383.868.868 0 0 0-.55-.359 1.614 1.614 0 0 0-.359-.023h-.167v-.479h.191a1.859 1.859 0 0 1 .742.12 1.632 1.632 0 0 1 .5.263 1.163 1.163 0 0 1 .239.383.8.8 0 0 1 .1.334 1.1 1.1 0 0 1 .024.239v.024h.67v.55zm3.636-1.914h.622v1.244a.619.619 0 0 1-.335.574 1.371 1.371 0 0 1-.335.1h-.957v-.55h.694c.191 0 .311-.1.311-.263v-1.1zm-.861 2.2h.526v.431h-.526zm.885 0h.526v.431h-.526zm2.44-.144a.553.553 0 0 0 .1-.239 1.562 1.562 0 0 1-.5.1.971.971 0 0 1-.813-.359.837.837 0 0 1-.215-.574.956.956 0 0 1 .072-.358.657.657 0 0 1 .191-.359 1.024 1.024 0 0 1 .813-.311h.024a1.16 1.16 0 0 1 .837.359 1.124 1.124 0 0 1 .239.669v.048l-.024.526a.216.216 0 0 1 .024.12.981.981 0 0 1-.335.741 1.248 1.248 0 0 1-.837.239h-.1v-.431c.024.024.048.024.1.024a.6.6 0 0 0 .424-.192zm-.383-1.7a.621.621 0 0 0-.239.1 1.025 1.025 0 0 0-.144.168.638.638 0 0 0-.072.287 1.018 1.018 0 0 0 .048.263.431.431 0 0 0 .454.263.407.407 0 0 0 .167-.024c.048 0 .1-.048.167-.12a.712.712 0 0 0 .12-.359.528.528 0 0 0-.024-.191.413.413 0 0 0-.407-.383zm3.635 1h2.511a.887.887 0 0 0-.43-.957 2.587 2.587 0 0 0-1.1-.167l-.67.024.933-1.363h.622l-.5.813a.813.813 0 0 1 .239.024 1.612 1.612 0 0 1 1.124.431 1.523 1.523 0 0 1 .383 1.076v.67h-3.324l-.12-.024c-.55-.1-.837-.55-.861-1.292h.6v.048a.667.667 0 0 0 .594.727zm3.564-2.463h.67v2.99l-.67.024zm2.153 3.014a.941.941 0 0 1-.311.5 1.356 1.356 0 0 1-.933.239v-.431a.144.144 0 0 0 .1.024.6.6 0 0 0 .43-.191.709.709 0 0 0 .12-.43v-1.626h.622v1.363h.454v.55zm1.411-2.631h.526v.431h-.526zm.885 0h.526v.431h-.526zm-.5.718h.718v1.052a.346.346 0 0 1-.12.311h.646v.55h-2.655v-.55h.981c.263 0 .431-.1.431-.335zm4.951 1.363h.263c.215 0 .311-.1.311-.263v-1.1h.646v1.244a.6.6 0 0 1-.359.574.938.938 0 0 1-.335.1h-1.175v-.024c0 .024 0 .024-.024.024h-1.2v-.024c-.024 0-.072.024-.1.024h-1.818v-.55h1.555c.191 0 .311-.1.311-.263v-1.1h.646v1.244a1.036 1.036 0 0 0-.024.12h.359c.191 0 .311-.1.311-.263v-1.1h.622v1.363zm-.622-2.679h.526v.431h-.526zm-.43.574h.526v.43h-.526zm.885 0h.526v.43h-.526zm1.77-.359h.67v2.99l-.67.024z" class="cls-2" data-name="Path 654" transform="translate(-2023.904 -5849.779)"/>
            </g>
        </g>
    </g>
</svg>
