<?xml version="1.0"?>
<svg xmlns="http://www.w3.org/2000/svg" viewBox="0 0 64 64" width="512" height="512"><g id="Outline"><g><path d="M48,46H46a1,1,0,0,0,0,2h2a1,1,0,0,1,0,2H22a1,1,0,0,1,0-2H42a1,1,0,0,0,0-2H30.506L25.6,37.5a3,3,0,0,0-5.5.724,2.974,2.974,0,0,0,.3,2.276L23.577,46H22a2.993,2.993,0,0,0-1,5.816V53a8.983,8.983,0,0,0,3.356,7H16.105L18,41.1A1,1,0,0,0,17,40H6V35H25a1,1,0,0,0,0-2H6V26H28V38.392a1,1,0,0,0,2,0V25a1,1,0,0,0-.393-.794l-3.975-3.041,1.823-2.418a1,1,0,0,0-.2-1.4l-4.792-3.611a1,1,0,0,0-1.4.2l-1.788,2.374-6.67-5.1a1,1,0,0,0-1.214,1.588l3.961,3.03L4.393,24.206A1,1,0,0,0,4,25V40H3a1,1,0,0,0-1,1.1l1,9.986a1,1,0,0,0,1.991-.2l-.3-3.005c.106.005.213.021.319.021a6.387,6.387,0,0,0,3.543-1.071,4.4,4.4,0,0,1,4.89,0,6.257,6.257,0,0,0,1.883.838L14.1,60H5.905l-.513-5.132a1,1,0,0,0-1.991.2l.6,6.033A1,1,0,0,0,5,62H40a9.011,9.011,0,0,0,9-9V51.816A2.993,2.993,0,0,0,48,46ZM22.134,39.5a1,1,0,0,1,.366-1.366,1,1,0,0,1,1.366.366L28.2,46H25.887ZM17,17.083,26.046,24H7.954Zm5.061-1.149,3.194,2.407L24.043,19.95l-3.178-2.429ZM14.555,45.168a6.4,6.4,0,0,0-7.11,0,4.372,4.372,0,0,1-2.955.682L4.105,42H15.9l-.365,3.649A4.233,4.233,0,0,1,14.555,45.168ZM40,60H30a7.008,7.008,0,0,1-7-7V52H47v1A7.008,7.008,0,0,1,40,60Z"/><path d="M41.76,33.559a1.927,1.927,0,0,0,1.224.9,1.705,1.705,0,0,0,.35.036,3.423,3.423,0,0,0,1.817-.763l.43-.28a2.9,2.9,0,0,0,1.538-1.691,1.927,1.927,0,0,0-.334-1.485,3,3,0,0,0-5.025,3.28Zm1.534-1.846a1.006,1.006,0,0,1,.977-.8,1.04,1.04,0,0,1,.207.022,1,1,0,0,1,.623.418,7.013,7.013,0,0,1-.6.413l-.456.3a7.168,7.168,0,0,1-.619.382A.992.992,0,0,1,43.294,31.713Z"/><path d="M38.1,28.406a2.174,2.174,0,0,0,.974.253,1.667,1.667,0,0,0,.538-.088,2.894,2.894,0,0,0,1.508-1.717l.231-.461a2.9,2.9,0,0,0,.478-2.234,1.93,1.93,0,0,0-1.036-1.115h0A3,3,0,0,0,38.1,28.406Zm.453-3.13a1,1,0,0,1,1.327-.452,6.912,6.912,0,0,1-.309.658l-.245.488a7.126,7.126,0,0,1-.344.641,1,1,0,0,1-.429-1.335Z"/><path d="M38.8,35.048a3,3,0,1,0-2.7,5.356,2.163,2.163,0,0,0,.977.255,1.7,1.7,0,0,0,.534-.086,2.9,2.9,0,0,0,1.511-1.714l.232-.459a2.894,2.894,0,0,0,.484-2.234A1.926,1.926,0,0,0,38.8,35.048Zm-1.229,2.436-.246.487a6.858,6.858,0,0,1-.344.64,1,1,0,0,1,.9-1.785A6.972,6.972,0,0,1,37.569,37.484Z"/><path d="M45.6,36.487a1.932,1.932,0,0,0-1.442.486,2.9,2.9,0,0,0-.645,2.194l-.016.513A2.9,2.9,0,0,0,44,41.908a1.927,1.927,0,0,0,1.408.576h0l.1,0a3,3,0,0,0,.094-6Zm-.109,4a6.854,6.854,0,0,1,0-.728l.017-.544a6.782,6.782,0,0,1,.041-.727,1,1,0,0,1,.951,1.031A1.023,1.023,0,0,1,45.487,40.486Z"/><circle cx="41" cy="43" r="1"/><circle cx="35" cy="32" r="1"/><circle cx="39" cy="19" r="1"/><circle cx="49" cy="34" r="1"/><circle cx="44" cy="26" r="1"/><circle cx="34" cy="43" r="1"/><path d="M46.234,13.21a1,1,0,0,0-.366,1.366l6.265,10.851a1,1,0,0,0,1.732-1L47.6,13.576A1,1,0,0,0,46.234,13.21Z"/><path d="M61.866,27.819a1,1,0,0,0-1.366-.366L52.964,31.8l-12-20.784,6.928-4,9.3,16.108a1,1,0,1,0,1.732-1l-9.3-16.109,3.729-2.153a1,1,0,0,0-1-1.732l-4.6,2.653h0l-7.326,4.23-.437-4.164a1,1,0,1,0-1.99.209l.6,5.7a.988.988,0,0,0,.128.4l13,22.517a1,1,0,0,0,.366.366l4.9,2.83a1,1,0,0,0,1-1.732L54.6,33.17l6.9-3.985A1,1,0,0,0,61.866,27.819Z"/></g></g></svg>
