<svg xmlns="http://www.w3.org/2000/svg" width="228.604" height="190.088" fill="#00c395"><path d="M41.414 118.65c7.156 2.264 14.734 3.1 22.105 4.668 23.434 5.014 37.934 25.857 20.32 47.045-7.3 8.784-17.718 14.257-27.85 19.5 9.15-.31 18.345-2.59 26.063-7.587 7.924-5.136 14.472-12.114 22.517-17.09 10.6-6.558 23.2-9.093 35.614-10.178 16.614-1.45 33.8-.262 49.983-4.9 14.107-4.04 25.25-13.106 32.686-25.716 8.934-15.173 7.736-36.792-5.5-48.392-5.922-5.183-13.667-8.11-19.037-13.864-7.662-8.195-9.037-20.4-14.78-30.038-10.87-18.25-34.865-23.714-56.1-23.34-36.99.645-90.7 15.342-112.005 48.5-14.182 22.068-.543 50.937 22.452 60.142 1.176.456 2.355.877 3.543 1.25z" opacity=".3"/><path d="M37.25 121.368c7.4 1.3 15.014 1.15 22.526 1.75 23.892 1.918 40.974 20.693 26.278 44-6.1 9.654-15.707 16.446-25.07 22.975 9.027-1.5 17.85-4.958 24.856-10.926 7.184-6.127 12.77-13.9 20.094-19.88 9.654-7.886 21.815-12.04 33.986-14.734 16.287-3.6 33.472-4.668 48.916-11.375 13.462-5.847 23.33-16.287 29.056-29.767 6.885-16.212 2.88-37.485-11.768-47.26-6.548-4.37-14.6-6.258-20.683-11.263-8.663-7.128-11.62-19.046-18.57-27.86C153.7.35 129.22-1.933 108.208 1.2 71.608 6.664 20.282 28.236 3.48 63.878c-11.18 23.724 6.1 50.572 30.1 56.7a48.31 48.31 0 0 0 3.67.79z"/></svg>