<?xml version="1.0" encoding="iso-8859-1"?>
<!-- Generator: Adobe Illustrator 19.0.0, SVG Export Plug-In . SVG Version: 6.00 Build 0)  -->
<svg version="1.1" id="Capa_1" xmlns="http://www.w3.org/2000/svg" xmlns:xlink="http://www.w3.org/1999/xlink" x="0px" y="0px"
	 viewBox="0 0 328.904 328.904" style="enable-background:new 0 0 328.904 328.904;" xml:space="preserve">
<g>
	<g>
		<g>
			<path d="M287.2,170.702c-52.4,0.8-116.8,3.6-135.2,4.4l-34-130.8c-0.8-3.6-4.4-5.6-8-4.4c-64.8,16.4-110,74.8-110,141.6
				c0,80.8,66,146.8,146.8,146.8s146.8-66,146.8-146.8c0-1.6,0-3.2,0-4.8C293.6,173.502,290.4,170.702,287.2,170.702z
				 M146.8,315.502c-74,0-134-60-134-134c0-58.8,38.4-110.8,94.4-128l33.6,129.6c0.8,2.8,3.6,4.8,6.4,4.8c0.8,0,73.2-3.6,133.6-4.4
				C280,256.702,220,315.502,146.8,315.502z"/>
			<path d="M328.8,150.702c-1.2-64.4-46.4-121.2-109.2-137.2c-3.6-0.8-6.8,1.2-8,4.4l-35.2,136c-0.4,2,0,4,1.2,5.6
				c1.2,1.6,3.2,2.4,4.8,2.4h0.4c0.8,0,78.8-3.6,140-4.4c1.6,0,3.2-0.8,4.4-2C328.4,154.302,329.2,152.702,328.8,150.702z
				 M191.2,148.702l31.2-121.2c52,16,89.6,62.8,94,117.2C268,145.502,212.4,147.902,191.2,148.702z"/>
			<path d="M154.8,148.702c0.8,2.8,3.2,4.8,6.4,4.8c3.2,0,5.6-2,6.4-4.8l35.2-136c0.4-1.6,0-3.2-0.8-4.8c-0.8-1.6-2.4-2.4-4-2.8
				c-24-6-49.6-6-73.6,0c-1.6,0.4-3.2,1.6-4,2.8c-0.8,1.6-1.2,3.2-0.8,4.8L154.8,148.702z M188,15.902l-27.2,105.6l-27.2-105.6
				C151.2,11.902,170.4,11.902,188,15.902z"/>
			<path d="M105.2,184.702c-0.4-1.2-1.2-2.4-2-3.2c-0.8-1.2-1.6-2-2.8-2.8c-1.2-0.8-2-2-3.2-2.8s-2.4-1.6-3.6-2.4
				c-1.2-0.8-2.8-1.6-4-2c-1.6-0.8-2.8-1.2-4.4-1.6c-0.8-0.4-1.6-0.4-2-0.8c-0.8-0.4-1.6-0.8-2-0.8c-0.8-0.4-1.2-0.8-2-1.2
				c-0.4-0.4-1.2-0.8-1.6-1.6c-0.4-0.4-0.8-1.2-1.2-2c-0.4-0.8-0.4-1.6-0.4-2.4s0-1.6,0-2.4s0.4-1.6,0.8-2c0.4-0.8,0.8-1.2,1.2-2
				c0.4-0.8,1.2-1.2,1.6-1.6c0.8-0.4,1.6-0.8,2.4-1.2c0.8-0.4,1.6-0.4,2.8-0.4c0.4,0,1.2,0,1.6,0c0.4,0,1.2,0,1.6,0
				c0.8,0,1.6,0,2.8,0.4c0.8,0,2,0.4,2.8,0.4s1.2,0.4,2,0.4c0.8,0.4,1.6,0.4,2,0.4l2.8,0.8l0.4-2.8l1.2-8.4l0.4-2l-3.2-0.4
				c-0.8-0.4-1.2-0.4-2-0.4c-0.4,0-1.2-0.4-2-0.4c-0.8,0-1.6-0.4-2.4-0.4s-1.6-0.4-2.4-0.4h-0.8v-7.2v-3.2h-2.4H80h-2.4v2.4v8h-0.8
				c-1.6,0.4-3.2,1.2-4.4,2c-1.2,0.8-2.8,1.6-4,2.8c-1.2,1.2-2.4,2.4-3.2,3.6s-1.6,2.8-2.4,4c-0.8,1.6-1.2,3.2-1.6,4.8
				c-0.4,1.6-0.4,3.2-0.4,5.2c0,1.2,0,2.8,0.4,4c0.4,1.2,0.8,2.8,1.2,4c0.4,1.2,1.2,2.4,2,3.2c0.8,1.2,1.6,2,2.8,2.8
				s2.4,1.6,3.2,2.4c1.2,0.8,2.4,1.6,4,2.4c1.6,0.8,2.8,1.2,4.4,2c1.6,0.8,2.8,1.2,4.4,1.6c0.8,0.4,1.6,0.4,2,0.8
				c0.8,0.4,1.2,0.8,2,1.2s1.2,0.8,1.6,1.2c0.4,0.4,0.8,0.8,1.2,1.6c0.4,0.4,0.8,1.2,0.8,2c0.4,0.8,0.4,1.6,0.4,2.4s0,1.6,0,2.4
				s-0.4,1.6-0.8,2c-0.4,0.8-0.8,1.2-1.6,1.6c-0.4,0.4-1.2,0.8-2,1.2s-1.2,0.8-2,0.8c-0.8,0.4-1.6,0.4-2.4,0.4c-0.8,0-1.2,0-2,0
				c-0.8,0-1.2,0-2,0c-0.8,0-2,0-2.8-0.4c-0.8,0-2-0.4-2.8-0.4c-1.2-0.4-2.4-0.4-3.2-0.8c-1.2-0.4-2.4-0.8-3.2-1.2
				c-0.4,0-0.8-0.4-1.2-0.4c-0.4-0.4-0.8-0.4-1.2-0.8l-3.2-1.6l-0.4,3.2v9.6l-0.4,1.6l1.6,0.8c1.2,0.4,2.4,1.2,3.6,1.6
				c1.2,0.4,2.4,0.8,3.6,1.2c1.2,0.4,2.4,0.8,4,0.8c1.2,0.4,2.8,0.4,4,0.8h0.8v7.6v2.4H80h7.2h2.4v-2.4v-8h0.8
				c1.6-0.4,3.2-1.2,4.8-2c1.6-0.8,2.8-1.6,4-2.8s2.4-2.4,3.2-3.6s1.6-2.8,2.4-4c0.8-1.6,1.2-3.2,1.6-4.8c0.4-1.6,0.4-3.2,0.4-4.8
				c0-1.6,0-2.8-0.4-4C106,187.502,105.6,185.902,105.2,184.702z"/>
		</g>
	</g>
</g>
<g>
</g>
<g>
</g>
<g>
</g>
<g>
</g>
<g>
</g>
<g>
</g>
<g>
</g>
<g>
</g>
<g>
</g>
<g>
</g>
<g>
</g>
<g>
</g>
<g>
</g>
<g>
</g>
<g>
</g>
</svg>
