<svg xmlns="http://www.w3.org/2000/svg" xmlns:xlink="http://www.w3.org/1999/xlink" viewBox="0 0 880.677 833.943"><style><![CDATA[.A, .C{fill:#065482}.A, .H, .O{opacity:0.1}.B{opacity:0.5}.D{fill:#dbdbdb}.E{fill:#e0e0e0}.F{fill:#f5f5f5}.G{fill:#333}.I{fill:#fda57d}.K{fill:#fff}.L{fill:#eee}.M{fill:#cf6f80}.N{fill:#3f3d56}.Q{fill:none;stroke:#535461;stroke-miterlimit:10;stroke-width:2px}]]></style><defs><linearGradient id="A" x1=".143" y1="1.023" x2=".921" y2="-.014"><stop offset="0" stop-color="gray" stop-opacity=".25"/><stop offset=".54" stop-color="gray" stop-opacity=".122"/><stop offset="1" stop-color="gray" stop-opacity=".102"/></linearGradient><linearGradient id="B" x1=".144" y1="1.024" x2=".919" y2="-.013" xlink:href="#A"/><linearGradient id="C" x1=".5" y1="1" x2=".5" y2="0" xlink:href="#A"/><path id="D" d="M318.632 196.212h132.93v10.6h-132.93z"/><path id="E" d="M248.356 221.07h8.7v3.383a4 4 0 0 1-4 4h-.75a4 4 0 0 1-4-4v-3.383z"/><path id="F" d="M240.816 205.484h23.788s-2.03-9.6-11.026-8.982-12.762 8.982-12.762 8.982z"/><path id="G" d="M322.063 576.357l-1.74 7.4s-13.936-7.113-16.45-16.15 4.205-12.47 4.205-12.47l12.986 5.5z"/></defs><ellipse class="A" cx="286.473" cy="675.071" rx="78.494" ry="12.607"/><ellipse class="A" cx="713.153" cy="675.426" rx="97.948" ry="12.607"/><path class="A" d="M1.676 329.93h81.756v111.433H7.66l-.6 3.448h76.375v89.868c-.137-.04-.258-.1-.387-.137l-6.444-2.723-1.37-.62q-3.222-1.523-6.444-3.222l-2.24-1.224a134.06 134.06 0 0 1-32.126-25.1l-.806-.806-3.826-4.318-1.37-1.6-4.26-5.5-.6-.806A119.93 119.93 0 0 1 9.7 463.548l-.314-.806q-1.66-4.27-2.94-8.62l-1.03-3.68a21.51 21.51 0 0 1-.3-1.1C.54 431.487 0 412.935 0 394.512v-6.444l.217-22.443c0-1.94.08-3.875.12-5.824q.17-7.42.483-14.838l.185-4.116a23.31 23.31 0 0 1 .121-2.368l.55-8.55zM83.43 205.858H38.586c7.3-11.4 15.255-22.375 23.853-32.835 6.662-8.184 13.694-16.16 20.993-23.844zm.003 3.448v117.177h-81.5c0-.338.056-.685.08-1.023l.226-2.77.3-3.222.338-3.512.37-3.52.4-3.5.427-3.5.38-2.892.588-4.084c.013-.202.043-.403.1-.6a278.81 278.81 0 0 1 6-29.42 217.57 217.57 0 0 1 10.111-29.804 223.74 223.74 0 0 1 15.21-29.29zm19.517 120.616v111.44h174.62v-111.44zm0 114.88v95.7l2.973.58 4.028.693.806.1 1.6.234 4.028.46 1.925.17 1.555.12 2.513.137 1.563.064h5.744l2.07-.064h.048a10.88 10.88 0 0 0 1.442-.064 3.39 3.39 0 0 0 .4 0 8.48 8.48 0 0 0 1.192-.056h.282l2.7-.2 2.683-.282 1.837-.218a160.72 160.72 0 0 0 22.113-4.7c16.288-4.543 32.222-10.9 48.5-15.555 21.05-6 44.306-8.95 64.646-1.6v-75.5zM277.57 205.86V57.498a224.53 224.53 0 0 0-56.735 6.654c-44.217 11.1-83.9 35.2-117.885 65.975v75.722h8.764v3.44h-8.765v117.193h174.62V209.297H147.7v-3.436zm224.292-50.114c-10.94-.387-21.815-3.85-31.65-9.2-18.8-10.23-33.833-26.028-50.62-39.36-34.882-27.77-78.142-44.526-122.52-48.682V205.86H546.35l.62-.652zm22.7-4.028l24.078 26.42v-33.35c-8.064 1-15.128 3.375-24.046 6.9zm24.078 412.547V444.802h-51.307l-.435-1.54c.153.516.282 1.03.427 1.54h-200.23v86.4c1.9 1.4 3.778 2.892 5.64 4.4 2.006 1.6 3.988 3.3 5.977 4.978l2.006 1.66 2.9 2.368q2.9 2.352 5.856 4.64c.975.806 1.974 1.53 2.964 2.288a403.76 403.76 0 0 0 49.647 32.472q5.824 3.222 11.753 6.3l7.943 3.98q5.993 2.924 12.083 5.64a443.73 443.73 0 0 0 117.612 34.26q13.525 2 27.155 3.142v-73.06h.806zm-251.544-354.97V326.48H548.68V209.297zm0 120.624v111.44H548.68V329.92zm271.1-185.278v37.2l30.732-33.72q-15.273-2.465-30.732-3.52zm0 185.32v111.4h244.7V329.92zm243.796 243.15l.862-128.3H568.208v193.793a438.77 438.77 0 0 0 47.286-.564h.274q11.278-.7 22.45-2.062h.17a413.44 413.44 0 0 0 115.356-30.78M860.078 348.27a240.67 240.67 0 0 0-2.852-6.444c-1.82-4.028-3.746-7.943-5.727-11.858h-19.092v111.4h48.27c-.024-31.546-8.007-63.768-20.574-93.13zm-27.67 96.57v110.362c13.6-13.034 25.085-27.945 33.358-45 9.95-20.526 14.5-42.75 14.87-65.387zm0-147.353v29h17.3a314.15 314.15 0 0 0-17.28-29.04zm-165.946-130.98l-3.826-1.45a349.08 349.08 0 0 0-41.333-12.422l-47.93 52.57.6.66H741.35c-23.3-16.046-48.443-29.272-74.87-39.4zm79.8 42.832H571.64l-3.432 3.142v114h244.72v-55.22a348.65 348.65 0 0 0-66.644-61.964z"/><g class="B"><path class="C" d="M648.94 0h-.56c-21.614.105-41.716 11.1-53.452 29.26A64.02 64.02 0 0 0 541.474 0h-.56c-34.887.332-63 28.698-63.018 63.587 0 20.816 9.117 50.353 26.894 74.657 33.87 46.3 90.137 86.828 90.137 86.828s56.266-40.5 90.13-86.828c17.785-24.3 26.894-53.84 26.894-74.657C711.93 28.7 683.823.337 648.94 0zm-8.034 141.807c-5.207-.02-9.866-3.238-11.73-8.1h-13.35a4.22 4.22 0 0 1-3.975-2.874l-4.1-12.358-12.98 45.353a4.2 4.2 0 0 1-4.027 3.031h-.262a4.15 4.15 0 0 1-3.892-3.473l-13.376-80.45-9.776 47.606a4.17 4.17 0 0 1-4.049 3.166h-18.8c-1.534.063-2.98-.72-3.766-2.04s-.786-2.963 0-4.283 2.23-2.102 3.766-2.04h15.517l13.848-64.006a4.2 4.2 0 0 1 8.234.344l13.657 82.066 11.632-40.577c.497-1.755 2.1-2.974 3.915-2.994h.082a4.18 4.18 0 0 1 3.967 2.874l7.418 22.313h10.165c2.006-6.093 8.284-9.692 14.556-8.342s10.514 7.213 9.835 13.6a12.55 12.55 0 0 1-12.475 11.218z"/><path d="M476.578 119.144l-271.152.66a11.15 11.15 0 0 0-11.123 11.161l1.235 499.8a11.15 11.15 0 0 0 11.175 11.115l271.152-.66c6.152-.016 11.128-5.014 11.116-11.166l-1.258-499.812a11.15 11.15 0 0 0-11.145-11.108z" fill="url(#A)"/><rect class="C" width="285.516" height="515.357" rx="13.64" transform="matrix(.999997 -.002443 .002443 .999997 198.261002 119.391998)" x="0" y="0"/><path d="M476.96 261.528l-.284-119.015a10.85 10.85 0 0 0-10.869-10.816l-53.033.127a23.15 23.15 0 0 1-22.762 19.746l-98.618.24c-11.42-.008-21.128-8.346-22.86-19.634l-52.24.127a10.85 10.85 0 0 0-10.816 10.869l1.138 467.826a10.85 10.85 0 0 0 10.891 10.794l249.512-.606a10.85 10.85 0 0 0 10.786-10.846z" fill="#bbb"/><rect class="D" width="63.624" height="3.975" rx="1.987" transform="matrix(.999887 -.015009 .015009 .999887 306.647003 138.639008)" x="0" y="0"/><circle class="D" cx="2.388" cy="2.388" transform="matrix(.999887 -.015009 .015009 .999887 381.385986 136.716995)" r="2.388"/><use xlink:href="#D" class="E"/><use xlink:href="#D" y="21.188" class="E"/><ellipse class="F" cx="252.755" cy="207.739" rx="25.105" ry="25.225"/><path class="C" d="M263.57 225.397h-21.774a6.49 6.49 0 0 0-5.3 2.814 32.66 32.66 0 0 0 32.186.18 6.48 6.48 0 0 0-5.112-2.994z"/><path class="G" d="M241.977 208.383s-3.2 9.282-4.933 8.413c0 0 16.8 14.506 31.625 0a44.21 44.21 0 0 0-6.385-8.413z"/><circle class="G" cx="252.74" cy="207.515" r="12.478"/><use xlink:href="#E" class="H"/><path class="I" d="M249.275 220.86h6.87a.92.92 0 0 1 .921.921v2.485a4 4 0 0 1-4 4h-.75a4 4 0 0 1-3.967-4v-2.463a.92.92 0 0 1 .921-.943z"/><path class="H" d="M248.376 222.12c2.808 1.04 5.897 1.04 8.705 0v-1h-8.705z"/><circle class="I" cx="252.74" cy="210.225" r="12.478"/><use xlink:href="#F" class="G"/><ellipse class="I" cx="240.524" cy="209.693" rx="1.16" ry="2.178"/><ellipse class="I" cx="264.896" cy="209.693" rx="1.16" ry="2.178"/><use xlink:href="#F" y=".332" class="H"/><use xlink:href="#D" y="80.736" class="E"/><use xlink:href="#D" y="101.934" class="E"/><ellipse class="E" cx="252.755" cy="288.475" rx="25.105" ry="25.225"/><use xlink:href="#D" y="161.471" class="E"/><use xlink:href="#D" y="182.668" class="E"/><ellipse class="E" cx="252.755" cy="369.21" rx="25.105" ry="25.225"/><use xlink:href="#D" y="242.206" class="E"/><use xlink:href="#D" y="263.405" class="E"/><ellipse class="E" cx="252.755" cy="449.946" rx="25.105" ry="25.225"/><use xlink:href="#D" y="322.942" class="E"/><use xlink:href="#D" y="344.14" class="E"/><ellipse class="E" cx="252.755" cy="530.681" rx="25.105" ry="25.225"/></g><path d="M651.096 181.94l-271.16.66a11.15 11.15 0 0 0-11.116 11.171l1.235 497.362c.008 2.956 1.2 5.788 3.285 7.872s4.934 3.252 7.9 3.244l271.167-.66a11.15 11.15 0 0 0 11.1-11.153l-1.234-497.366c-.004-2.957-1.183-5.792-3.278-7.88s-4.933-3.257-7.9-3.25z" fill="url(#B)"/><rect class="C" width="285.516" height="515.357" rx="13.64" transform="matrix(.999997 -.002443 .002443 .999997 372.776001 179.740005)" x="0" y="0"/><path d="M651.476 322.7l-.284-119.86a10.85 10.85 0 0 0-10.869-10.816l-53.048.127c-1.678 11.293-11.34 19.676-22.757 19.743l-98.6.24c-11.42-.008-21.128-8.345-22.86-19.634l-52.24.127a10.85 10.85 0 0 0-10.821 10.867l.292 120.018m-.01.012l.846 347.808a10.85 10.85 0 0 0 10.869 10.816l249.512-.606a10.85 10.85 0 0 0 10.813-10.87l-.853-348.8" fill="#fafafa"/><path d="M404.263 241.88h53v53h-53z" class="E"/><path d="M341.3 338.926h350.03v119.067H341.3z" class="B" fill="url(#C)"/><path d="M345.46 343.82h341.7v110.092h-341.7z" class="K"/><use xlink:href="#D" x="163.103" y="188.381" class="C"/><use xlink:href="#D" x="163.103" y="209.588" class="C"/><use xlink:href="#D" x="163.103" y="305.818" class="E"/><use xlink:href="#D" x="163.103" y="327.015" class="L"/><path d="M518.435 284.284h59.53v18.758h-59.53z" class="C"/><ellipse class="F" cx="415.857" cy="396.12" rx="25.105" ry="25.225"/><path class="C" d="M426.673 413.778h-21.78a6.49 6.49 0 0 0-5.3 2.814 32.66 32.66 0 0 0 32.186.18 6.48 6.48 0 0 0-5.1-2.994z"/><path class="G" d="M405.08 396.772s-3.2 9.282-4.933 8.413c0 0 16.8 14.506 31.625 0a44.2 44.2 0 0 0-6.385-8.413z"/><circle class="G" cx="415.843" cy="395.903" r="12.478"/><use xlink:href="#E" x="163.104" y="188.39" class="H"/><path class="I" d="M412.377 409.25h6.87a.92.92 0 0 1 .921.921v2.463a4 4 0 0 1-4 4h-.75a4 4 0 0 1-4-4v-2.463a.92.92 0 0 1 .921-.921z"/><path class="H" d="M411.47 410.484c2.808 1.04 5.897 1.04 8.705 0v-1.07h-8.705z"/><circle class="I" cx="415.843" cy="398.606" r="12.478"/><use xlink:href="#F" x="163.074" y="188.391" class="G"/><ellipse class="I" cx="403.627" cy="398.074" rx="1.16" ry="2.178"/><ellipse class="I" cx="427.991" cy="398.074" rx="1.16" ry="2.178"/><use xlink:href="#F" x="163.074" y="188.713" class="H"/><ellipse class="E" cx="432.168" cy="514.371" rx="25.105" ry="25.225"/><ellipse class="E" cx="432.168" cy="611.417" rx="25.105" ry="25.225"/><use xlink:href="#D" x="163.103" y="399.598" class="E"/><use xlink:href="#D" x="163.103" y="420.798" class="L"/><use xlink:href="#D" x="163.103" y="45.668" class="E"/><use xlink:href="#D" x="163.103" y="66.874" class="E"/><rect class="D" width="63.624" height="3.975" rx="1.987" transform="matrix(.999887 -.015009 .015009 .999887 481.160004 198.994003)" x="0" y="0"/><circle class="D" cx="2.388" cy="2.388" transform="matrix(.999887 -.015009 .015009 .999887 555.900024 197.078995)" r="2.388"/><path d="M339.817 515.6s-3.174-.443-3.174-5.067-2.272-13.26-2.272-13.26c0-.04-1.966-15.04-4.68-17.424s-6.2-16.385-6.2-16.385-.6-7.6-1.813-9.232-2.86-5.64-5.284-11.35-12.534-9.667-12.534-9.667l-23.458-14.057c-.47-.284-.9-.616-1.313-1-.9-1.184-4.833-1.208-4.833-1.208a79.2 79.2 0 0 1-.934-8.273 6.29 6.29 0 0 0-.04-.87 27.87 27.87 0 0 0 12.253-15.161c.1-.306.177-.628.266-.934a2.62 2.62 0 0 0 1.571-1.418c.467-1.04.475-2.256 1.055-3.222.677-1.144 1.966-1.756 2.98-2.618 2.562-2.175 3.222-5.84 3.1-9.175-.08-2.7-.516-5.42-.346-8.1l.048-.677c.048-.4.1-.806.177-1.192.395-2 1.257-3.883 1.74-5.864a7.54 7.54 0 0 0-.6-5.92c-1.65-2.505-5.1-3-8.112-3.263-3.424-.3-6.485.1-8.676-2.755a30.93 30.93 0 0 0-3.448-4.165c-.45-.42-4.833-3.093-4.833-3.27a19.58 19.58 0 0 0-13.654-1.047c-2.272.66-4.414 1.74-6.718 2.28-4.97 1.176-10.7-.1-14.9 2.747-2.352 1.6-3.762 4.173-5.083 6.67q-1.6 3.085-3.27 6.163c-1.78 3.375-3.593 6.807-4.342 10.545a16.74 16.74 0 0 0-.29 2.465v1.313a4.26 4.26 0 0 0 .048.806c.048.25.04.33.064.5s.064.548.113.806.145.7.242 1.063c.04.153.1.3.145.443a9.67 9.67 0 0 0 .282.806c.056.137.113.282.177.42a7.55 7.55 0 0 0 .411.806c.064.113.113.217.177.322a10.67 10.67 0 0 0 .741 1.079c1.724 2.15 4.26 3.52 6.138 5.534v.9a27.57 27.57 0 0 0 12.55 22.515c0 .306.04.62.056.926a46 46 0 0 1-.09 7.178c-.664-.782-1.648-1.22-2.674-1.192a3.79 3.79 0 0 0-1.03.09l-.072-.056v.073c-1.772.435-3.955 2.28-6.042 7.524 0 0-6.348 7.153-11.18 6.855s-17.07 7.443-17.07 7.443-11.94 7.744-14.5 15.634c-1.432 4.475-3.15 8.854-5.14 13.1l-14.758 30.4-2.723 24.126s1.506 10.73 1.208 12.365 6.195 16.385 6.195 16.385 21.452 37.692 30.216 39.625l.628-.443a5.14 5.14 0 0 0 1.184.443l1.8-1.273a19.71 19.71 0 0 1-.137 4.253c-1.208 3.722.45 28 2.562 32.77s1.36 67.184 1.36 67.184l-.3 5.5a2.33 2.33 0 0 0 .073.483l-.073 1.3.217.113c.226 1.747.153 3.52-.217 5.244-.757 2.417-1.063 9.248-1.063 9.248s-6.034 38.57-3.174 46.32 5.293 16.24 5.293 16.24 3.02 9.667.145 11.318-11.052 4.422-9.37 8.45c1.53 3.722 7.34 13.695 8.2 15.153l-.072.765-1.184 12.833a16.11 16.11 0 0 0 1.361 4.9c1.3 2.8 3.818 5.7 8.6 5.38a42.93 42.93 0 0 0 2.642-.274c8.773-1.176 19.575-5.1 19.575-5.1a7.93 7.93 0 0 1-1.53-1.265 4.42 4.42 0 0 1-1.345-3.222c.13-2.336-4.245-13.47-5.333-16.208l-.258-.62s9.973-10.424 8.313-19.664c0 0-11.036-6.444-7.4-9.98s10.126-13.694 10.126-13.694v-43.653a47 47 0 0 1 .556-11.785c.12-.588.266-1.16.42-1.724 5.025.75 10.097 1.135 15.177 1.152 1.853 0 3.738 0 5.64-.113q0 .806.072 1.74l1.837 32.037c.9 8.8 5.9 32.472 5.9 32.472s-9.514 6.106 1.66 21.154c0 0 0 5.454-.74 6.243a68.29 68.29 0 0 0-1.909 7.862c-.467 2.836-.66 5.7.1 7.194 1.813 3.56 12.688 3.27 12.688 3.27l.266-.048a15.59 15.59 0 0 1 11.511 3.472c4.133 3.32 19.817 1.86 28.307.806 3.327-.42 5.55-.806 5.55-.806a3.22 3.22 0 0 0 .113-1.16c-.1-2.086-1.724-6.662-12.808-10.746 0 0-10.424-7.008-10.28-13.115h-1.42c.48-.03.962-.03 1.442 0s-4.084-14.9-2.417-16.1-3.327-17.722-3.327-17.722l-3.013-29.653c.006-1.666.26-3.322.75-4.914l-.75-15.193s-.145-5.05 0-6.694a33.44 33.44 0 0 0-.346-4.261l-.226-1.732c3.907-1 6.444-1.9 6.444-1.9l-.45-52.885c3.32-6.444 3.93-20.582 3.915-30.6 0-6.444-.3-11.213-.3-11.213l4.535-7.4s1.047-8.86-.612-10.8a1.86 1.86 0 0 1 .2-2.538 8.44 8.44 0 0 1 .991-.677c.346-.202-.048-.073-.1-.177.317-.265.653-.504 1.007-.717s-1.6-2.5-.17-3.552c1.353.918 2.562 1.6 3.48 2.175-.064.588-.13.926-.13.926l.387-.806 1.426.806s7.105-14.154 6.952-16.24 4.833-10.875 4.833-10.875.6-4.616 3.327-6.55 2.1-15.942 2.1-15.942.757-7.3 2.57-10.28-1.66-6.994-1.66-6.994zm-135.946-6.2l.137 3.375-1.386-2.23z" fill="url(#C)"/><use xlink:href="#G" class="K"/><use xlink:href="#G" class="H"/><path class="K" d="M243.85 828.586s-12.9 4.737-21.75 5.333c-4.7.314-7.178-2.57-8.45-5.35-.695-1.545-1.144-3.2-1.33-4.874l1.764-19.568 18.826-4.9 2.666 8.152.25.62c1.07 2.723 5.365 13.8 5.236 16.1a4.4 4.4 0 0 0 1.321 3.182 7.66 7.66 0 0 0 1.466 1.281zm88.05-6.493a3.22 3.22 0 0 1-.113 1.152c-.107.374-27.566 4.6-33.205 0a14.94 14.94 0 0 0-11.6-3.4c-4.173.552-10.666.3-12.446-3.222-.74-1.474-.548-4.334-.1-7.153a68.16 68.16 0 0 1 1.869-7.822l.427-.338 2.537-2.038 29.7-.878h.226c-.145 6.074 10.086 13.042 10.086 13.042 10.865 4.028 12.47 8.58 12.6 10.657z"/><path class="H" d="M331.9 822.093a3.29 3.29 0 0 1-.121 1.152c-.108.373-27.558 4.6-33.2 0-3.213-2.715-7.422-3.95-11.592-3.4s-10.674.3-12.446-3.222c-.74-1.482-.556-4.334-.1-7.153 4.108.4 10.593 1.434 13.14 3.875 3.85 3.714 10.376 7.42 14.38 7.7 3.14.2 21.886.796 29.94 1.04zm-88.05 6.494s-12.9 4.737-21.75 5.333c-4.7.314-7.178-2.57-8.442-5.357 3.28 1.1 7.83 2.264 10.223 1.2 2.836-1.257 12.9-2.07 18.528-2.417.43.47.913.887 1.442 1.24z"/><path class="M" d="M262.975 446.872c-10.633-4.133-24.312-17.787-20.9-24.167.758-1.6 1.2-3.347 1.33-5.123.22-2.4.254-4.834.1-7.25-.24-3.956-.715-7.894-1.425-11.793s33.2.75 31.264 5.64c-.564 1.434-.652 3.923-.5 6.7s.556 5.937.975 8.6c.58 3.657 1.16 6.444 1.16 6.444s-2.03 2.844-3.222 3 6.477 23.83-8.78 17.94z"/><path class="H" d="M235.803 808.013l-.25.274c-9.924-12-21.927 2.956-21.927 2.956l-.177-.314.612-6.8 18.826-4.9 2.666 8.152zm73.4-8.773s-7.25-.153-11.117 3.262-22.556.74-21.75 0a2.65 2.65 0 0 0 .419-1.224l2.537-2.038 29.7-.878.202.878z"/><path class="C" d="M248.152 704.982c-.54 1.335-.95 2.72-1.224 4.133a47.29 47.29 0 0 0-.556 11.729c.3 5.64 0 43.428 0 43.428s-6.372 10.078-9.924 13.63 7.25 9.933 7.25 9.933c1.6 9.183-8.152 19.56-8.152 19.56-9.924-12-21.927 2.964-21.927 2.964s-6.525-11.278-8.152-15.306 6.372-6.815 9.183-8.45-.137-11.278-.137-11.278-2.376-8.45-5.2-16.16 3.1-46.086 3.1-46.086.306-6.815 1.04-9.2a15.37 15.37 0 0 0 .217-5.22c-.048-.588-.1-1.08-.145-1.4l-.072-.483.113-.193 4.028-7.508s32.484 11.18 30.55 15.908zm61.062 93.372s-7.25-.153-11.117 3.222-22.556.74-21.75 0 .74-6.227.74-6.227c-10.964-14.967-1.6-21.04-1.6-21.04s-4.9-23.563-5.784-32.3c-.62-6.106-1.386-22.515-1.8-31.884l-.282-6.8 8.958-1.8 1.152-.234 21.605-4.334 1 7.323c.2 1.407.314 2.825.338 4.245-.145 1.6 0 6.654 0 6.654l.733 15.12c-.48 1.586-.726 3.233-.733 4.9.145 1.925 2.956 29.5 2.956 29.5s4.9 16.45 3.222 17.634 2.372 16.04 2.372 16.04z"/><path class="H" d="M273.343 404.178c-.564 1.434-.652 3.923-.5 6.7a27.59 27.59 0 0 1-29.338-.548 99.29 99.29 0 0 0-1.426-11.801c-.7-3.902 33.197.733 31.264 5.64z"/><path d="M286.175 386.375c.007 2.903-.45 5.788-1.353 8.547a27.57 27.57 0 0 1-53.763-7.886v-.66c0-9.848 5.254-18.947 13.782-23.87s19.036-4.924 27.564 0 13.782 14.024 13.782 23.87z" fill="#efbbc5"/><path class="H" d="M262.975 446.872c-10.633-4.133-24.312-17.787-20.9-24.167.758-1.6 1.2-3.347 1.33-5.123l14.56 11.96 9.006 7.387 6.847-17.432c.58 3.657 1.16 6.444 1.16 6.444s-2.03 2.844-3.222 3 6.477 23.82-8.78 17.93z"/><path class="C" d="M300.62 499.74l-12.156 204.2L272.61 705 231.56 586.582l8.152-170.278 18.254 15 9.014 7.387 7.05-17.94 13.106 11.423z"/><path class="H" d="M248.152 704.98a22.42 22.42 0 0 0-1.224 4.133 116.8 116.8 0 0 1-33.237-10.384l-.217-.113.073-1.3.04-.677 4.028-7.508s32.47 11.12 30.537 15.85zm28.606 4.166a81.55 81.55 0 0 1-8.909 1.015l-.282-6.8 8.958-1.8z"/><path class="H" d="M300.276 704.313c-5.728 1.5-14.573 3.166-22.5 2.12l-.113-5.107 21.605-4.334 1 7.322zm-22.632 3.052c-33.028 5.64-63.277-10.53-63.277-10.53l.3-5.478s.75-62.1-1.33-66.86-3.7-28.9-2.52-32.6-4.294-59.273-4.294-59.273l-.886-22.556-32.432-13.138 14.5-30.225a109.06 109.06 0 0 0 5.043-13.05c2.52-7.846 14.226-15.555 14.226-15.555s12-7.7 16.748-7.4 10.964-6.815 10.964-6.815c4.592-11.7 8.748-6.4 8.748-6.4a10.46 10.46 0 0 1-.226 1.732c-1.6 12.85 26.052 53.45 26.446 54.166l2.634 64.17 2.666 81.208z"/><path class="K" d="M276.758 707.366c-33.028 5.64-63.285-10.53-63.285-10.53l.3-5.478s.75-62.1-1.337-66.86-3.7-28.9-2.513-32.6-4.294-59.273-4.294-59.273l-.894-22.556-32.45-13.188 14.5-30.225c1.954-4.24 3.64-8.598 5.043-13.05 2.513-7.846 14.226-15.555 14.226-15.555s12-7.7 16.74-7.4 10.964-6.815 10.964-6.815c4.6-11.7 9.667-6.4 9.667-6.4 0 .556-.483.806-.226 1.732 3.544 12.462 25.166 53.45 25.56 54.166l2.666 64.17 2.666 81.208z"/><path class="H" d="M267.857 475.14c-3.553-1.482-22.37-22.966-22.37-22.966v-4.9c-.685-1.6-4.753-.628-8.056.5l1.418-29.7 1.6 1.337c3.53 12.452 26.986 55 27.397 55.72z"/><path class="K" d="M268.75 473.36c-3.56-1.482-22.378-22.966-22.378-22.966v-4.9c-.685-1.6-4.753-.628-8.056.5l1.426-29.7 1.6 1.337c3.536 12.452 27.002 55 27.397 55.72z"/><path class="H" d="M214.367 580.506c.443 0 22.966-2.368 22.966-2.368s13.638 26.817 12.744 33.342-2.513 12.3-8 11.278-29.524.806-29.524.806z"/><path class="K" d="M213.474 578.726c.443 0 22.966-2.368 22.966-2.368s13.63 26.825 12.744 33.342-2.52 12.3-8 11.278-29.524.806-29.524.806z"/><path class="M" d="M230.45 566.135s20.67 11.1 21.114 14.5-10.52-1.482-12.9-2.07a29.49 29.49 0 0 0-4.745-.741l-15.8.427z"/><circle class="H" cx="262.089" cy="474.35" r="2.175"/><circle class="N" cx="262.089" cy="473.464" r="2.175"/><circle class="H" cx="266.092" cy="568.504" r="2.175"/><circle class="N" cx="266.092" cy="567.609" r="2.175"/><circle class="H" cx="264.256" cy="521.427" r="2.175"/><circle class="N" cx="264.256" cy="520.541" r="2.175"/><path class="K" d="M314.394 577.373s1.482 2.223 0 3.262.145 3.552.145 3.552-3.7 2.167-2.07 4.116.6 10.754.6 10.754l-4.447 7.363s.266 4.745.282 11.157c0 10.005-.588 24.07-3.842 30.482l.45 52.61s-15.57 5.687-28.605 3.955l-1.933-84.422 3.86-57.058c.608-4.768.856-9.574.74-14.38s-.443-14.37-1.933-21.04l-1.772-36.895c-.073-3.826.13-14.99.354-25.61l.532-22.556-2.94-23.265s2.94-.3 3.826.886a8.46 8.46 0 0 0 1.289.991c5.075 3.432 23.007 13.984 23.007 13.984s9.924 3.947 12.3 9.6 4.028 9.667 5.18 11.278 1.78 9.183 1.78 9.183 3.416 13.936 6.082 16.3 4.616 17.376 4.616 17.376l-23.563 18.528-2.513 32.013c-.443 1.192 8.574 27.834 8.574 27.834z"/><path class="K" d="M315.288 577.373s1.474 2.223 0 3.262.137 3.552.137 3.552-3.673 2.19-2.062 4.14.6 10.754.6 10.754l-4.447 7.363s.266 4.745.3 11.157c0 10.005-.588 24.07-3.842 30.482l.443 52.61s-15.6 5.687-28.613 3.955l-1.925-84.422 3.86-57.058a94.71 94.71 0 0 0 .733-14.379c-.12-4.805-.443-14.37-1.925-21.04l-1.78-36.895c-.073-3.826.137-14.99.354-25.61l.532-22.556-3.89-23.577s3.883 0 4.777 1.2a7.65 7.65 0 0 0 1.289.991c5.075 3.432 23.015 13.984 23.015 13.984s9.916 3.947 12.293 9.6 4.028 9.667 5.188 11.278 1.772 9.183 1.772 9.183 3.416 13.936 6.082 16.3 4.592 17.344 4.592 17.344l-23.563 18.528-2.52 32.013c-.45 1.192 8.61 27.84 8.61 27.84z"/><path class="H" d="M287.07 449.53l2.127 6.2-11.2 11.278.532-22.556-3.88-23.576s3.883 0 4.777 1.2c.392.374.824.704 1.3.983l9.522 27.47z"/><path class="K" d="M286.175 447.75l2.135 6.2-11.2 11.278.532-22.556-3.9-23.576s3.9 0 4.777 1.2a8.06 8.06 0 0 0 1.289.991l9.53 27.46z"/><path class="H" d="M286.175 386.375c.007 2.903-.45 5.788-1.353 8.547a1.15 1.15 0 0 1-.87-.218c-.21-7.25-3.778-14.057-8.168-19.85a20.86 20.86 0 0 0-4.431-4.592 8.67 8.67 0 0 0-6.009-1.7c-2.417.33-4.55 1.974-6.992 2.183-3.222.266-6.106-1.966-9.3-2.078a9.14 9.14 0 0 0-6.839 3.174 18.76 18.76 0 0 0-3.665 6.8 39.78 39.78 0 0 0-2.046 11.729c-.04 2.256-.258 5.083-2.352 5.9.32-3.354-.783-6.687-3.037-9.19l-.048-.048v-.66c0-9.848 5.254-18.947 13.782-23.87s19.036-4.924 27.564 0 13.782 14.024 13.782 23.87z"/><path d="M270.032 342.6a18.98 18.98 0 0 0-13.388-1.047l-6.6 2.272c-4.833 1.168-10.472-.1-14.62 2.73-2.3 1.6-3.7 4.157-4.978 6.63l-3.222 6.138c-1.756 3.36-3.528 6.775-4.26 10.472s-.3 7.838 2.054 10.8c1.708 2.167 4.23 3.528 6.082 5.566 2.244 2.506 3.342 5.834 3.03 9.183 2.1-.806 2.3-3.64 2.352-5.9a40.09 40.09 0 0 1 2.046-11.73 18.7 18.7 0 0 1 3.665-6.8 9.16 9.16 0 0 1 6.839-3.174c3.222.113 6.114 2.336 9.3 2.07 2.417-.2 4.56-1.853 6.992-2.175 2.145-.203 4.288.403 6 1.7a20.64 20.64 0 0 1 4.422 4.592c4.4 5.792 7.967 12.583 8.176 19.85.9.67 2.223-.2 2.674-1.233s.467-2.24 1.04-3.222c.66-1.136 1.925-1.74 2.916-2.594 2.513-2.167 3.142-5.816 3.045-9.127s-.74-6.67-.113-9.924c.38-2 1.232-3.867 1.7-5.84a7.64 7.64 0 0 0-.58-5.89c-1.6-2.5-5-3-7.96-3.222-3.36-.3-6.364.08-8.507-2.747a30.85 30.85 0 0 0-3.383-4.141c-.42-.414-4.728-3.073-4.728-3.25z" fill="#512e4e"/><path class="H" d="M182.475 512.485l-8.418-15.563-2.666 24.014s1.482 10.666 1.184 12.3 6.074 16.3 6.074 16.3 21.05 37.5 29.645 39.424l29.04-20.75-7.7-9.78s-2.666-1.04-3.335 0l-15.78-26.382c-1.48-1.782-1.192-5.333-1.192-5.333s-2.223-2.368-1.482-4.592-4.294-9.933-4.294-9.933l4.592-4.294z"/><path class="K" d="M174.5 495.15l-2.223 1.772-2.666 24.014s1.482 10.666 1.184 12.3 6.082 16.3 6.082 16.3 21.04 37.5 29.637 39.424l29.046-20.754-7.7-9.78s-2.666-1.04-3.335 0l-15.78-26.382c-1.48-1.782-1.184-5.333-1.184-5.333s-2.223-2.368-1.482-4.592-4.3-9.933-4.3-9.933l4.592-4.294z"/><path class="H" d="M312.468 589.223c1.6 1.958.6 10.746.6 10.746l-4.447 7.363s.266 4.753.282 11.157l-7.476 2.336a4.44 4.44 0 0 1-5.76-4.374l1.3-41.575 17.44 6.67c-1.482 1.03.145 3.56.145 3.56s-3.7 2.16-2.073 4.116z"/><path class="K" d="M313.363 588.328c1.61 1.958.6 10.754.6 10.754l-4.447 7.363s.266 4.745.3 11.157l-7.613 2.376a4.35 4.35 0 0 1-5.639-4.286l1.3-41.7 17.448 6.67c-1.5 1.03.137 3.552.137 3.552s-3.688 2.164-2.076 4.114z"/><path class="M" d="M319.136 568.5s-1.184 7.564-4.15 8.007-4.294 12.236-7.25 11.818-1-10.964-.894-13-3.222-10.52-.733-12.446 10.368 0 10.368 0z"/><path class="H" d="M325.446 510.262l5.6-11.278s2.223 8.6 2.223 13.187 3.1 5.043 3.1 5.043 3.408 4.028 1.6 6.96-2.52 10.23-2.52 10.23.588 13.928-2.078 15.853-3.222 6.525-3.222 6.525-4.9 8.74-4.745 10.82-6.815 16.15-6.815 16.15 3.408-17.5-16.45-25.045c0 0-.153-5.937 1.33-7.564s3.794-2.368 2.344-10.593-.42-18.053-.42-20.026 4.447-14.283 4.447-14.283z"/><path class="K" d="M327.864 497.373l4.882 1.6s2.23 8.6 2.23 13.187 3.1 5.043 3.1 5.043 3.408 4.028 1.6 6.96-2.513 10.23-2.513 10.23.588 13.928-2.078 15.853-3.263 6.525-3.263 6.525-4.9 8.74-4.737 10.82-6.823 16.15-6.823 16.15 3.416-17.5-16.45-25.045c0 0-.145-5.937 1.337-7.564s3.794-2.368 2.344-10.593-.42-18.053-.42-20.026 4.447-14.283 4.447-14.283z"/><path class="H" d="M220.04 789.686s7.782-4.9 12.9-1.337-12.9 1.337-12.9 1.337zm60.464-15.12a15.75 15.75 0 0 1 12.67 5.34c5.784 6.227-12.67-5.34-12.67-5.34z"/><path d="M290.58 385c-1 .854-2.264 1.466-2.924 2.6-.564.975-.58 2.175-1.03 3.222s-1.764 1.9-2.674 1.24c-.2-7.25-3.786-14.057-8.176-19.857a20.64 20.64 0 0 0-4.422-4.592 8.66 8.66 0 0 0-6.018-1.7c-2.417.33-4.543 1.974-6.984 2.175-3.222.274-6.114-1.958-9.312-2.07a9.12 9.12 0 0 0-6.831 3.182 18.66 18.66 0 0 0-3.665 6.791 39.83 39.83 0 0 0-2.046 11.729c-.048 2.248-.258 5.05-2.336 5.9a11.12 11.12 0 0 1 0 1.788c2.094-.806 2.3-3.64 2.352-5.9a39.78 39.78 0 0 1 2.046-11.729 18.7 18.7 0 0 1 3.665-6.8c1.715-2 4.204-3.147 6.83-3.174 3.222.113 6.122 2.336 9.312 2.07 2.417-.2 4.56-1.853 6.984-2.175a8.66 8.66 0 0 1 6.018 1.7 20.64 20.64 0 0 1 4.422 4.592c4.4 5.792 7.967 12.583 8.176 19.85.9.67 2.223-.2 2.674-1.233s.467-2.24 1.03-3.222c.66-1.136 1.933-1.74 2.924-2.594 2.513-2.167 3.142-5.816 3.045-9.127v-.306c-.152 2.874-.917 5.8-3.06 7.65zm-59.466-.572c-1.853-2.038-4.382-3.4-6.082-5.558-1.432-1.912-2.25-4.214-2.344-6.6a12.41 12.41 0 0 0 2.344 8.37c1.7 2.167 4.23 3.528 6.082 5.566 1.78 1.994 2.847 4.52 3.037 7.186a12.08 12.08 0 0 0-3.037-8.966zm64.1-24.325l-1.708 5.84a18.6 18.6 0 0 0-.25 4.028 15.63 15.63 0 0 1 .25-2.288c.387-2 1.232-3.867 1.708-5.84a9.91 9.91 0 0 0 .266-3.335 11.37 11.37 0 0 1-.266 1.6z" class="O"/><ellipse class="A" cx="738.553" cy="677.121" rx="63.123" ry="10.138"/><path d="M736.526 482.907h4.062v91.452h-4.062z" fill="#535461"/><path class="N" d="M766.112 574.08l-.253 4.12-.512 8.253-.356 5.83-.155 2.423-4.457 71.953a11.21 11.21 0 0 1-11.181 10.507H727.9a11.2 11.2 0 0 1-11.175-10.507l-5.72-92.623a5.83 5.83 0 0 1 5.83-6.161h43.54a5.79 5.79 0 0 1 5.727 6.206z"/><path d="M765.86 578.2l-.363 5.8H711.6l-.363-5.8zm-.513 8.234l-.356 5.817h-52.868l-.363-5.817zm-.5 8.246l-.356 5.8h-51.845l-.363-5.8z" fill="#9d9cb5"/><path class="C" d="M705.05 517.183c23.652 17.115 33.524 43.883 33.524 43.883s-28.5-.978-52.162-18.094-33.512-43.876-33.512-43.876 28.5.972 52.15 18.087z"/><path class="Q" d="M652.88 499.096s29.592 16.422 39.08 30.02 46.6 31.95 46.6 31.95"/><path class="C" d="M720.317 482.706c12.872 9.3 18.255 23.878 18.255 23.878s-15.515-.53-28.394-9.84-18.248-23.885-18.248-23.885 15.5.53 28.387 9.847z"/><path class="Q" d="M691.93 472.86s16.1 8.94 21.268 16.338 25.375 17.387 25.375 17.387"/><path class="C" d="M757.263 505.846c-14.8 16.254-17.92 37.5-17.92 37.5s20.853-5.118 35.63-21.378 17.92-37.5 17.92-37.5-20.84 5.12-35.63 21.378z"/><path class="Q" d="M792.905 484.474s-19.266 16.662-24.164 28.14-29.4 30.726-29.4 30.726"/></svg>