<?xml version="1.0" encoding="UTF-8"?>
<svg viewBox="0 0 80.942 108.54" xmlns="http://www.w3.org/2000/svg">
<g transform="translate(-129.9 -159)" data-name="Group 412">
<g transform="translate(129.9 208.19)" data-name="chat (7)">
<g transform="translate(0)" data-name="Group 213">
<ellipse transform="translate(2.998 2.137)" cx="25.597" cy="26.08" rx="25.597" ry="26.08" fill="rgba(231,235,238,0.85)" data-name="Ellipse 525"/>
<path transform="translate(7.278 59.348) rotate(225)" d="M4.826,0,9.652,14.8H0Z" fill="#e7ebed" data-name="Polygon 24"/>
<path transform="translate(-.117)" d="M48.509,8.313A28.353,28.353,0,0,0,6.538,46.341c-1.271,2.6-2.767,4.335-4.466,5.166a2.645,2.645,0,0,0,.76,4.988,13.493,13.493,0,0,0,2.007.154h0a18.337,18.337,0,0,0,10.19-3.3A28.361,28.361,0,0,0,48.509,8.313ZM46.241,46.139a25.159,25.159,0,0,1-30.51,3.907,1.6,1.6,0,0,0-1.793.107,15.271,15.271,0,0,1-8.9,3.266A16.138,16.138,0,0,0,9.9,46.709,1.614,1.614,0,0,0,9.626,45a25.146,25.146,0,1,1,36.615,1.14Z" fill="#a3b0b8" data-name="Path 1085"/>
<path transform="translate(-111.79 -141.11)" d="m153.23 160h-26.178a1.767 1.767 0 1 0 0 3.534h26.178a1.767 1.767 0 1 0 0-3.534z" fill="#a3b0b8" data-name="Path 1086"/>
<path transform="translate(-111.79 -198.71)" d="m153.23 225.3h-26.178a1.767 1.767 0 1 0 0 3.534h26.178a1.767 1.767 0 1 0 0-3.534z" fill="#a3b0b8" data-name="Path 1087"/>
<path transform="translate(-111.79 -256.3)" d="m153.23 290.6h-26.178a1.767 1.767 0 1 0 0 3.534h26.178a1.767 1.767 0 1 0 0-3.534z" fill="#a3b0b8" data-name="Path 1088"/>
</g>
</g>
<g transform="translate(154.14 192.75)" data-name="chat (7)">
<g transform="translate(0)" data-name="Group 213">
<circle transform="translate(2.371 2.126)" cx="26.08" cy="26.08" r="26.08" fill="#fff" data-name="Ellipse 524"/>
<path transform="translate(-.117)" d="M8.419,8.313A28.353,28.353,0,0,1,50.39,46.341c1.271,2.6,2.767,4.335,4.466,5.166a2.645,2.645,0,0,1-.76,4.988,13.493,13.493,0,0,1-2.007.154h0a18.337,18.337,0,0,1-10.19-3.3A28.361,28.361,0,0,1,8.419,8.313Zm2.268,37.826A25.159,25.159,0,0,0,41.2,50.046a1.6,1.6,0,0,1,1.793.107,15.271,15.271,0,0,0,8.9,3.266,16.138,16.138,0,0,1-4.857-6.71A1.614,1.614,0,0,1,47.3,45a25.146,25.146,0,1,0-36.615,1.14Z" fill="#a3b0b8" data-name="Path 1085"/>
</g>
</g>
<g transform="translate(170.57 217.95)" fill="#a3b0b8" data-name="Group 410">
<path transform="translate(-219.96 -384.02)" d="m234.83 393.86a5.01 5.01 0 0 1-6.3 0 1.355 1.355 0 1 0-1.774 2.048 7.715 7.715 0 0 0 9.849 0 1.355 1.355 0 0 0-1.774-2.048z" data-name="Path 9024"/>
<path transform="translate(-261.06 -341.15)" d="M283.8,341.213a1.355,1.355,0,0,0-1.7.89,1.541,1.541,0,0,1-2.942,0,1.355,1.355,0,0,0-2.587.806,4.251,4.251,0,0,0,8.116,0A1.354,1.354,0,0,0,283.8,341.213Z" data-name="Path 9025"/>
<path transform="translate(-191.4 -341.15)" d="M199.578,342.91a1.355,1.355,0,1,0-2.587-.806,1.541,1.541,0,0,1-2.941,0,1.355,1.355,0,1,0-2.587.806,4.251,4.251,0,0,0,8.116,0Z" data-name="Path 9026"/>
</g>
<path transform="translate(-189.81 11.992)" d="M379.343,172.318c0,.774.444,1.027,1.2,1.027h5.642c.6,0,1.078-.3,1.078-.875s-.482-.875-1.078-.875h-4.057l4.78-5.68a1.159,1.159,0,0,0,.292-.748.852.852,0,0,0-.964-.951h-5.478c-.6,0-1.078.3-1.078.875s.482.875,1.078.875h3.626l-4.7,5.554A1.212,1.212,0,0,0,379.343,172.318Z" fill="#bbc4c9" data-name="Path 9027"/>
<path transform="translate(-216.5 104.57)" d="M410.654,64.476h4.417a.677.677,0,1,0,0-1.353h-2.849l3.206-3.514a.91.91,0,0,0,.273-.582.681.681,0,0,0-.712-.76h-4.12a.677.677,0,1,0,0,1.354h2.505l-3.265,3.55a.891.891,0,0,0-.226.629A.7.7,0,0,0,410.654,64.476Z" fill="#bbc4c9" data-name="Path 9028"/>
<path transform="translate(-169.71 131.13)" d="M356.911,32.514h3.3a.507.507,0,1,0,0-1.013h-2.132l2.4-2.63a.681.681,0,0,0,.2-.435.509.509,0,0,0-.533-.569h-3.083a.507.507,0,1,0,0,1.013h1.875L356.5,31.537a.667.667,0,0,0-.169.471A.521.521,0,0,0,356.911,32.514Z" fill="#bbc4c9" data-name="Path 9029"/>
<circle transform="translate(192.78 193.91)" cx="8.21" cy="8.21" r="8.21" fill="#ed1846" data-name="Ellipse 526"/>
<g transform="translate(198.58 198)" fill="#fff" data-name="Group 355">
<path transform="translate(-220.51 -337.01)" d="M222.47,343.22a.82.82,0,1,0,.82.82.82.82,0,0,0-.82-.82Z" data-name="Path 1207"/>
<path transform="translate(-184.02 -140)" d="M186.121,140c-1.438,0-2.1.852-2.1,1.428a.611.611,0,0,0,.639.608c.575,0,.341-.82,1.428-.82.532,0,.959.235.959.724,0,.575-.6.905-.946,1.2a1.95,1.95,0,0,0-.714,1.62c0,.554.149.714.586.714.522,0,.631-.235.631-.437a1.338,1.338,0,0,1,.6-1.332,2.728,2.728,0,0,0,1.193-1.95C188.391,140.757,187.485,140,186.121,140Z" data-name="Path 1208"/>
</g>
</g>
</svg>
