<svg xmlns="http://www.w3.org/2000/svg" width="100.228" height="37.378" viewBox="0 0 100.228 37.378">
    <defs>
        <style>
            .cls-1{fill:#bed2dd}
        </style>
    </defs>
    <g id="Layer_2" data-name="Layer 2" transform="translate(109.022 -65.714)">
        <g id="Layer_1" data-name="Layer 1">
            <path id="Path_659" d="M8.808 32.292H9a7.308 7.308 0 0 0 1.233-.069h.184a1.729 1.729 0 0 1-.282-.231 2.409 2.409 0 0 1-.386-.536 2.882 2.882 0 0 1-.265-.79 15.131 15.131 0 0 1-.242-1.827 69.236 69.236 0 0 1-.207-3.355V15.15c0-1.5.138-3.055.294-4.744a4.611 4.611 0 0 1 .1-.876A9.758 9.758 0 0 1 10.5 6.458 12.41 12.41 0 0 1 13.218 3 103.225 103.225 0 0 0 5.35 7.53a30.9 30.9 0 0 0-2.778 1.9 8.513 8.513 0 0 0-.98.865 1.308 1.308 0 0 0-.352.576 8.928 8.928 0 0 0-.219.957 21.487 21.487 0 0 0-.242 2.19c-.058 1.055-.1 2.15-.127 3.245a125.6 125.6 0 0 0 .081 7.447A23.725 23.725 0 0 0 1 27.831a7.758 7.758 0 0 0 .207 1.026 1.677 1.677 0 0 0 .617.968h.058a9.625 9.625 0 0 0 3.608 1.994 11.527 11.527 0 0 0 3.354.478" class="cls-1" data-name="Path 659" transform="translate(-43.484 64.456)"/>
            <path id="Path_660" d="M35.039 32.55a2.133 2.133 0 0 1-.628 1.291 7.919 7.919 0 0 1-.79.7c-.5.386-.968.72-1.435 1.049a72.686 72.686 0 0 1-5.631 3.5 155.406 155.406 0 0 1-6.651 3.695 74.42 74.42 0 0 1-3.389 1.654 9.861 9.861 0 0 1-3.948.911h-.305a12.069 12.069 0 0 1-1.96-.161 13.009 13.009 0 0 1-1.971-.478 93.416 93.416 0 0 0 7.285 4.254c1.3.686 2.305 1.153 3.3 1.608a9.071 9.071 0 0 0 1.562.576 1.5 1.5 0 0 0 .34 0 1.377 1.377 0 0 0 .329 0 7.706 7.706 0 0 0 .957-.294c.818-.317 1.6-.686 2.248-1.014a90.335 90.335 0 0 0 6.058-3.308 76.52 76.52 0 0 0 4.519-2.882 15.44 15.44 0 0 0 1.471-1.158 7.348 7.348 0 0 0 .536-.576 1.153 1.153 0 0 0 .265-.576 9.707 9.707 0 0 0-.069-4.611 12.439 12.439 0 0 0-2.063-4.138" class="cls-1" data-name="Path 660" transform="translate(-46.746 51.938)"/>
            <path id="Path_661" d="M42.04 17.951a50.378 50.378 0 0 0-.317-6.582 9.713 9.713 0 0 0-.317-1.729 1.458 1.458 0 0 0-.352-.594 8.173 8.173 0 0 0-.79-.72 23.016 23.016 0 0 0-1.971-1.412 94.031 94.031 0 0 0-8.7-5.1A35.133 35.133 0 0 0 26.64.412a7.331 7.331 0 0 0-1.147-.421 2.115 2.115 0 0 0-.455 0 1.308 1.308 0 0 0-.409.058 9.712 9.712 0 0 0-3 1.55A11.655 11.655 0 0 0 18 6.4l.254-.092a2.265 2.265 0 0 1 .651-.092 2.179 2.179 0 0 1 .576.081 8.675 8.675 0 0 1 .876.294c.767.317 1.533.663 2.254 1.009 1.689.83 3.5 1.781 5.643 3.009 2.611 1.487 4.732 2.772 6.732 4.069a95.553 95.553 0 0 1 2.68 1.816 9.32 9.32 0 0 1 1.925 1.8 11.943 11.943 0 0 1 2.305 5.13v-.72c.058-1.349.081-2.842.069-4.663" class="cls-1" data-name="Path 661" transform="translate(-50.842 65.735)"/>
            <path id="Path_662" d="M52.1 41.3a9.8 9.8 0 0 0 .207-2.017 10.053 10.053 0 0 0-.317-2.53 12.421 12.421 0 0 0-2.063-4.138A2.133 2.133 0 0 1 49.3 33.9a7.885 7.885 0 0 1-.79.686c-.5.386-.968.72-1.435 1.049a46.912 46.912 0 0 1-3.671 2.306c5.977-.911 8.069 1.516 8.738 3.274" class="cls-1" data-name="Path 662" transform="translate(-61.603 51.912)"/>
            <path id="Path_663" d="M21.54 1.616a11.655 11.655 0 0 0-3.62 4.767l.254-.092a2.253 2.253 0 0 1 .651-.092 2.19 2.19 0 0 1 .576.081q.438.127.865.294c.778.305 1.55.663 2.259 1.014 1.107.536 2.248 1.153 3.5 1.816-4.282-4.98-2.548-8.139-1.66-9.3a9.689 9.689 0 0 0-2.841 1.493" class="cls-1" data-name="Path 663" transform="translate(-50.809 65.684)"/>
            <path id="Path_664" d="M9.775 47.39h.2a7.337 7.337 0 0 0 1.225-.07h.184a1.729 1.729 0 0 1-.282-.231 2.4 2.4 0 0 1-.386-.536 2.882 2.882 0 0 1-.265-.79 15.142 15.142 0 0 1-.242-1.827 69.236 69.236 0 0 1-.207-3.355V38.64c-.8 2.259-2.957 6.876-7.1 6.375a9.648 9.648 0 0 0 3.579 1.96 11.527 11.527 0 0 0 3.354.478" class="cls-1" data-name="Path 664" transform="translate(-44.45 49.358)"/>
            <path id="Path_665" d="M45 98.27a5 5 0 0 1-7.35 0 5 5 0 0 1-7.28 0 5 5 0 0 1-7.3 0 5 5 0 0 1-7.27 0 5 5 0 0 1-7.31 0l-.27.25c-1.38 1.37-2.75 2.72-4.12 4.1a.79.79 0 0 1-1 .24 15.684 15.684 0 0 1-1.42-.72c-.29-.16-.29-.35 0-.59 1.26-1.22 2.5-2.47 3.75-3.7.39-.39.81-.78 1.19-1.19A2.29 2.29 0 0 0 7 94a2.42 2.42 0 0 0-4.5.37 2.3 2.3 0 0 0 .6 2.39q.66.67 1.34 1.31c.23.22.27.4 0 .57-.5.27-1 .54-1.52.76a.68.68 0 0 1-.82-.23A16 16 0 0 1 1 98a4.52 4.52 0 0 1-.6-4.77 4.58 4.58 0 0 1 3.83-2.95 4.81 4.81 0 0 1 5.47 3.78c.1.48.1 1 .2 1.47a2.42 2.42 0 0 0 2.51 1.9 2.39 2.39 0 0 0 2.26-2.35v-1.76c0-.27.11-.43.39-.33.57.17 1.09.36 1.68.57a.58.58 0 0 1 .37.64v.84a2.42 2.42 0 0 0 4.84.05 2.37 2.37 0 0 0-2.33-2.47h-4.43c-.57 0-.63 0-.49-.59a10.11 10.11 0 0 1 .6-1.58.48.48 0 0 1 .35-.24 39.091 39.091 0 0 1 4.73.09 4.65 4.65 0 0 1 3.88 4.7 2.46 2.46 0 0 0 2 2.47 2.39 2.39 0 0 0 2.89-2.39V91c0-.75 0-.81.78-.61a9.73 9.73 0 0 1 1.31.5.62.62 0 0 1 .37.66v3.55a2.39 2.39 0 0 0 2.25 2.4 2.42 2.42 0 0 0 2.53-1.88 3.09 3.09 0 0 0 .05-.68V85c0-.54 0-.58.54-.47a9.88 9.88 0 0 1 1.41.44.81.81 0 0 1 .52.87V95a2.43 2.43 0 0 0 4.85.22v-4.37c0-.46 0-.52.47-.43a12.779 12.779 0 0 1 1.62.53.6.6 0 0 1 .36.64V95a2.45 2.45 0 0 0 2.57 2.57h6.84a2.59 2.59 0 0 0 2.8-3.21 2.42 2.42 0 0 0-4-1.52 2.39 2.39 0 0 0-.8 1.83V96a.64.64 0 0 1-.41.7 17.509 17.509 0 0 1-1.69.52c-.09 0-.33-.12-.32-.19a21.529 21.529 0 0 1 .15-3.6 4.74 4.74 0 0 1 5.08-3.65A4.83 4.83 0 0 1 60.79 94a5.14 5.14 0 0 1-1.27 4.37 4.75 4.75 0 0 1-3.58 1.53h-6.48A5.38 5.38 0 0 1 45 98.28" class="cls-1" data-name="Path 665" transform="translate(-109 -9)"/>
            <path id="Path_666" d="M42.06 103.73c-.49 1.09-1.19 1.49-2.05 1.3a1.71 1.71 0 0 1-1.41-1.62 1.69 1.69 0 0 1 1.26-1.7c.92-.26 1.57.11 2.18 1.23.62-1.09 1.29-1.5 2.18-1.25a1.7 1.7 0 0 1 0 3.28c-.91.23-1.55-.15-2.18-1.28" class="cls-1" data-name="Path 666" transform="translate(-109 -9)"/>
            <path id="Path_667" d="M27.21 103c.51-1.09 1.25-1.51 2.18-1.29a1.7 1.7 0 0 1-.13 3.35 1.76 1.76 0 0 1-2-1.21 7.76 7.76 0 0 1-1 1 1.47 1.47 0 0 1-1.42.11 1.7 1.7 0 0 1 .24-3.28c.86-.21 1.44.14 2.18 1.29" class="cls-1" data-name="Path 667" transform="translate(-109 -9)"/>
            <path id="Path_668" d="M55.69 87.8A1.69 1.69 0 0 1 54 86.1a1.71 1.71 0 1 1 1.73 1.7" class="cls-1" data-name="Path 668" transform="translate(-109 -9)"/>
        </g>
    </g>
</svg>
