<?xml version="1.0" encoding="iso-8859-1"?>
<!-- Generator: Adobe Illustrator 19.0.0, SVG Export Plug-In . SVG Version: 6.00 Build 0)  -->
<svg version="1.1" id="Capa_1" xmlns="http://www.w3.org/2000/svg" xmlns:xlink="http://www.w3.org/1999/xlink" x="0px" y="0px"
	 viewBox="0 0 512 512" style="enable-background:new 0 0 512 512;" xml:space="preserve">
<g>
	<g>
		<path d="M256,289.651c-21.268,0-38.571,17.303-38.571,38.572c0,17.796,12.117,32.807,28.531,37.237v55.475
			c0,5.544,4.496,10.039,10.039,10.039c5.544,0,10.039-4.496,10.039-10.039v-55.475c16.414-4.43,28.531-19.442,28.531-37.237
			C294.571,306.954,277.268,289.651,256,289.651z M256,346.714c-10.197,0-18.492-8.295-18.492-18.492s8.295-18.493,18.492-18.493
			c10.197,0,18.492,8.296,18.492,18.493S266.197,346.714,256,346.714z"/>
	</g>
</g>
<g>
	<g>
		<path d="M391.539,181.77h-22.518v-68.749C369.021,50.701,318.32,0,256,0S142.979,50.701,142.979,113.021v68.748h-22.518
			c-32.976,0-59.804,26.824-59.804,59.795v210.633c0,32.977,26.829,59.804,59.804,59.804h271.079
			c32.976,0,59.804-26.828,59.804-59.804V241.564C451.343,208.593,424.514,181.77,391.539,181.77z M163.057,113.021
			c0-51.249,41.694-92.943,92.943-92.943s92.943,41.694,92.943,92.943v68.748h-28.311v-68.748c0-35.644-28.994-64.643-64.632-64.643
			c-35.638,0-64.632,28.998-64.632,64.643v68.748h-28.311V113.021z M300.554,113.021v68.748h-89.108v-68.748
			c0-24.573,19.987-44.564,44.554-44.564C280.567,68.457,300.554,88.448,300.554,113.021z M431.265,452.196
			c0,21.905-17.821,39.725-39.725,39.725H120.461c-21.905,0-39.725-17.821-39.725-39.725V241.564
			c0-21.898,17.821-39.716,39.725-39.716h32.557h48.389h109.187h48.389h32.557c21.905,0,39.725,17.817,39.725,39.716V452.196z"/>
	</g>
</g>
<g>
	<g>
		<path d="M407.571,279.002c-5.544,0-10.039,4.496-10.039,10.039v88.507c0,5.544,4.496,10.039,10.039,10.039
			s10.039-4.496,10.039-10.039v-88.507C417.61,283.497,413.115,279.002,407.571,279.002z"/>
	</g>
</g>
<g>
	<g>
		<path d="M407.333,245.877c-12.919,0-12.941,20.078,0,20.078C420.253,265.956,420.275,245.877,407.333,245.877z"/>
	</g>
</g>
<g>
</g>
<g>
</g>
<g>
</g>
<g>
</g>
<g>
</g>
<g>
</g>
<g>
</g>
<g>
</g>
<g>
</g>
<g>
</g>
<g>
</g>
<g>
</g>
<g>
</g>
<g>
</g>
<g>
</g>
</svg>
