<svg xmlns="http://www.w3.org/2000/svg" width="165.761" height="58.543" viewBox="0 0 165.761 58.543">
  <g id="Layer_2" data-name="Layer 2" transform="translate(0 -3.267)">
    <g id="Layer_1" data-name="Layer 1" transform="translate(0 5.037)">
      <path id="Path_40" data-name="Path 40" d="M252.14,30.939a10.656,10.656,0,0,0-7.577,3.327,8.836,8.836,0,0,0-7-3.327c-5.489,0-10.343,4.655-10.846,10.4a14.022,14.022,0,0,0,.327,4.445,15.532,15.532,0,0,0,.605,1.986c3.415,9.007,14.427,14.852,14.427,14.852s12.046-5.855,17.023-14.852c0,0,.644-1.2.976-1.986a15.955,15.955,0,0,0,1.108-4.445c.488-5.747-3.537-10.4-9.026-10.4Zm0,0" transform="translate(-105.655 -17.066)" fill="#ed1846"/>
      <path id="Path_41" data-name="Path 41" d="M228,51.569h4.742s.156-2.327,2.015-2.327,2.171,2.327,2.171,2.327h2.293l.805,3.874,1.21-15.613.742,19.775s.093-7.933,5.611-7.933h2.605a2.82,2.82,0,0,1,2.883-2.757,2.648,2.648,0,0,1,2.732,2.762H259.3" transform="translate(-106.339 -21.619)" fill="none" stroke="#fff" stroke-linecap="round" stroke-linejoin="round" stroke-width="1"/>
      <path id="Path_42" data-name="Path 42" d="M225.4,8.71c-10.134,5.255-17.076,16.037-16.681,27.63.488,15.164,13.344,25.971,28.669,24.141a29.679,29.679,0,0,0,10.148-3.157" transform="translate(-96.46 -5.683)" fill="none" stroke="#00c395" stroke-linecap="round" stroke-linejoin="round" stroke-width="3.5"/>
      <path id="Path_43" data-name="Path 43" d="M234.851,5.538a26.79,26.79,0,0,1,9.163-2.849c13.842-1.654,25.429,8.1,25.888,21.8.356,10.461-5.908,20.219-15.061,24.946a3.652,3.652,0,0,1-3.859-3.752c-.2-2.893,3.113-5.83,3.113-5.83a28.856,28.856,0,0,0,5.635-6.967s.649-1.205.976-2a16.05,16.05,0,0,0,1.112-4.469c.488-5.772-3.557-10.451-9.07-10.451a10.734,10.734,0,0,0-7.616,3.366,8.88,8.88,0,0,0-7.026-3.342c-5.513,0-10.4,4.679-10.9,10.451a14.111,14.111,0,0,0,.332,4.469,15.556,15.556,0,0,0,.61,2c3.415,9.051,14.5,14.92,14.5,14.92" transform="translate(-105.907 -2.505)" fill="none" stroke="#00c395" stroke-linecap="round" stroke-linejoin="round" stroke-width="3.5"/>
      <g id="Component_13_1" data-name="Component 13 – 1" transform="translate(0 15.645)">
        <path id="Path_44" data-name="Path 44" d="M12.939,19.813a2.174,2.174,0,0,0,.665.454,2.053,2.053,0,0,0,1.625,0,2.169,2.169,0,0,0,.665-.454,2.042,2.042,0,0,0,.443-.665,2.111,2.111,0,0,0,0-1.62,2.053,2.053,0,0,0-1.108-1.113,2.111,2.111,0,0,0-2.29.443,2.021,2.021,0,0,0-.443.665,2.111,2.111,0,0,0,0,1.62,2.021,2.021,0,0,0,.443.67Z" transform="translate(-5.825 -16.253)" fill="#ed1846"/>
        <path id="Path_45" data-name="Path 45" d="M20.021,34.679a1.837,1.837,0,0,0,.559-.385,1.8,1.8,0,0,0,.385-.559,1.678,1.678,0,0,0,.142-.681V24.189a1.689,1.689,0,0,0-.137-.681,1.81,1.81,0,0,0-.391-.559,1.842,1.842,0,0,0-.559-.38,1.7,1.7,0,0,0-.681-.137H17.087v8.354H10.654V22.426H8.39a1.694,1.694,0,0,0-.681.137,1.863,1.863,0,0,0-.939.945,1.689,1.689,0,0,0-.137.681v6.6H4.026V16.5H1.762a1.657,1.657,0,0,0-.707.148,1.879,1.879,0,0,0-.528.38,1.784,1.784,0,0,0-.375.559A1.72,1.72,0,0,0,0,18.278V33.054a1.668,1.668,0,0,0,.137.681,1.863,1.863,0,0,0,.391.559,1.715,1.715,0,0,0,.528.385,1.752,1.752,0,0,0,.691.137H19.34A1.7,1.7,0,0,0,20.021,34.679Z" transform="translate(0 -16.37)" fill="#ed1846"/>
        <path id="Path_46" data-name="Path 46" d="M36.408,56.118A2.262,2.262,0,0,0,35.269,55a1.984,1.984,0,0,0-.813-.169,1.926,1.926,0,0,0-.8.169,2.232,2.232,0,0,0-.66.449,2.111,2.111,0,0,0,.66,3.4,2.011,2.011,0,0,0,.8.158,2.069,2.069,0,0,0,1.478-.607,2.174,2.174,0,0,0,.475-.66,2.037,2.037,0,0,0,0-1.62Z" transform="translate(-15.3 -34.473)" fill="#ed1846"/>
        <path id="Path_47" data-name="Path 47" d="M26.973,55.447a2.232,2.232,0,0,0-.66-.449,1.932,1.932,0,0,0-.8-.169A1.984,1.984,0,0,0,24.7,55a2.206,2.206,0,0,0-.665.449,2.079,2.079,0,0,0,1.478,3.562,2.016,2.016,0,0,0,.8-.158,2.074,2.074,0,0,0,.66-.443,2.158,2.158,0,0,0,.443-.665,2.037,2.037,0,0,0,0-1.62,2.169,2.169,0,0,0-.443-.675Z" transform="translate(-11.057 -34.473)" fill="#ed1846"/>
        <path id="Path_48" data-name="Path 48" d="M68.785,23.508a1.889,1.889,0,0,0-.375-.559,1.747,1.747,0,0,0-.528-.385,1.694,1.694,0,0,0-.681-.137H64.927v8.359h-3.34V22.426H59.339a1.747,1.747,0,0,0-.686.142,1.831,1.831,0,0,0-.95.945,1.683,1.683,0,0,0-.137.681v6.6h-3.3V22.426H52a1.752,1.752,0,0,0-.691.137,1.72,1.72,0,0,0-.559.385,1.868,1.868,0,0,0-.375.559,1.673,1.673,0,0,0-.137.681v6.6H47.793V16.5H45.523a1.657,1.657,0,0,0-.686.148,1.873,1.873,0,0,0-.559.38,1.778,1.778,0,0,0-.4.559,1.72,1.72,0,0,0-.137.686V33.049a1.668,1.668,0,0,0,.137.686,1.858,1.858,0,0,0,.375.559,1.71,1.71,0,0,0,.559.385,1.747,1.747,0,0,0,.686.137H67.133a1.694,1.694,0,0,0,.681-.137,1.741,1.741,0,0,0,.528-.385,1.879,1.879,0,0,0,.375-.559,1.678,1.678,0,0,0,.137-.681V24.189a1.689,1.689,0,0,0-.069-.681Z" transform="translate(-20.658 -16.37)" fill="#ed1846"/>
        <path id="Path_49" data-name="Path 49" d="M112.183,19.818a2.153,2.153,0,0,0,.665.454,2.053,2.053,0,0,0,1.625,0,2.185,2.185,0,0,0,.665-.454,2.031,2.031,0,0,0,.443-.665,2.111,2.111,0,0,0,0-1.62,2.031,2.031,0,0,0-.443-.665,2.111,2.111,0,0,0-2.29-.443,2.037,2.037,0,0,0-.665.443,2.111,2.111,0,0,0-.454.665,2.032,2.032,0,0,0,0,1.62A2.111,2.111,0,0,0,112.183,19.818Z" transform="translate(-52.689 -16.258)" fill="#ed1846"/>
        <path id="Path_50" data-name="Path 50" d="M121.123,19.82a2.174,2.174,0,0,0,.665.454,2.053,2.053,0,0,0,1.625,0,2.174,2.174,0,0,0,.665-.454,2.032,2.032,0,0,0,.443-.665,2.111,2.111,0,0,0,0-1.62,2.032,2.032,0,0,0-.443-.665,2.111,2.111,0,0,0-2.955,0,2.142,2.142,0,0,0-.454.665,2.037,2.037,0,0,0,0,1.62A2.142,2.142,0,0,0,121.123,19.82Z" transform="translate(-56.912 -16.259)" fill="#ed1846"/>
        <path id="Path_51" data-name="Path 51" d="M127.01,25.412a1.826,1.826,0,0,0-.945-.95,1.652,1.652,0,0,0-.681-.137h-9.351a7.541,7.541,0,0,0,1.172-1.668,8.053,8.053,0,0,0,.612-1.583,5.652,5.652,0,0,0,.19-1.372,4.59,4.59,0,0,0-.09-1.018.886.886,0,0,0-.243-.528c-.1-.079-.2-.032-.274.127a2.417,2.417,0,0,1-.712.86,13.139,13.139,0,0,1-1.1.792l-1.256.807a8.843,8.843,0,0,0-1.187.892,4.554,4.554,0,0,0-.881,1.055,2.544,2.544,0,0,0-.343,1.319v2.343a2.063,2.063,0,0,0,.222,1.013,1.689,1.689,0,0,0,.565.628,2.185,2.185,0,0,0,.8.3,4.222,4.222,0,0,0,.887.058h8.744v3.2h-15.4V23.191h-2.248a1.747,1.747,0,0,0-.7.142,1.715,1.715,0,0,0-.559.385,1.874,1.874,0,0,0-.375.559,1.678,1.678,0,0,0-.137.681v6.6H99.722v-6.6a1.689,1.689,0,0,0-.137-.681,1.873,1.873,0,0,0-.375-.559,1.742,1.742,0,0,0-.528-.385A1.694,1.694,0,0,0,98,23.191h-2.28v9.615a9.739,9.739,0,0,1-.09,1.087,3.942,3.942,0,0,1-.232.987,3.356,3.356,0,0,1-.422.786,4.28,4.28,0,0,1-.565.628q-.317.28-.649.528t-.85.559c-.29.179-.58.369-.865.565a7.441,7.441,0,0,0-.818.66,3.916,3.916,0,0,0-.691.834,4.422,4.422,0,0,0-.369.723,1.978,1.978,0,0,0-.137.528.364.364,0,0,0,.069.3c.058.047.148.037.269-.042a8.01,8.01,0,0,1,1.277-.681q.665-.285,1.356-.528t1.377-.422q.689-.2,1.346-.459a9.673,9.673,0,0,0,1.1-.5,5.805,5.805,0,0,0,.987-.675,4.955,4.955,0,0,0,.828-.913,5.377,5.377,0,0,0,.628-1.224h26.1a1.7,1.7,0,0,0,.681-.137,1.879,1.879,0,0,0,.945-.945,1.678,1.678,0,0,0,.137-.681V26.1a1.736,1.736,0,0,0-.121-.691Z" transform="translate(-42.519 -17.134)" fill="#ed1846"/>
        <path id="Path_52" data-name="Path 52" d="M164.9,39.631a1.694,1.694,0,0,1-.681-.137,1.725,1.725,0,0,1-.528-.385,1.857,1.857,0,0,1-.375-.559,1.673,1.673,0,0,1-.137-.681V35.6H171V31.282h-2.222a5.525,5.525,0,0,1-2.111-.427,5.736,5.736,0,0,1-1.546-.982,5.6,5.6,0,0,1-1.509-2.211,1.747,1.747,0,0,1-.132-.765c0-.185.111-.248.253-.174a5.2,5.2,0,0,0,1.33.354,15.2,15.2,0,0,0,1.583.137q.818.032,1.615,0h4.992a1.694,1.694,0,0,1,.681.137,1.731,1.731,0,0,1,.528.385,1.874,1.874,0,0,1,.375.559,1.684,1.684,0,0,1,.137.681v8.865a1.673,1.673,0,0,1-.137.681,1.869,1.869,0,0,1-.375.559,1.731,1.731,0,0,1-.528.385,1.694,1.694,0,0,1-.681.137Z" transform="translate(-77.069 -21.184)" fill="#ed1846"/>
      </g>
    </g>
  </g>
</svg>
