<svg height="480pt" viewBox="0 0 480 480" width="480pt" xmlns="http://www.w3.org/2000/svg"><path d="m424 303.585938c4.417969 0 8-3.582032 8-8 0-4.417969-3.582031-8-8-8h-24c-8.835938 0-16 7.164062-16 16v16c0 8.835937 7.164062 16 16 16h24c4.417969 0 8-3.582032 8-8 0-4.417969-3.582031-8-8-8h-24v-16zm0 0"/><path d="m288 407.585938v16c0 4.417968 3.582031 8 8 8s8-3.582032 8-8v-16c0-4.417969-3.582031-8-8-8s-8 3.582031-8 8zm0 0"/><path d="m320 391.585938v48c0 4.417968 3.582031 8 8 8s8-3.582032 8-8v-48c0-4.417969-3.582031-8-8-8s-8 3.582031-8 8zm0 0"/><path d="m360 391.585938v48c0 4.417968 3.582031 8 8 8s8-3.582032 8-8v-48c0-4.417969-3.582031-8-8-8s-8 3.582031-8 8zm0 0"/><path d="m72 399.585938c4.417969 0 8-3.582032 8-8 0-4.417969-3.582031-8-8-8-13.253906 0-24 10.746093-24 24v16c0 13.253906 10.746094 24 24 24h64c13.253906 0 24-10.746094 24-24v-16c0-13.253907-10.746094-24-24-24-4.417969 0-8 3.582031-8 8 0 4.417968 3.582031 8 8 8s8 3.582031 8 8v16c0 4.417968-3.582031 8-8 8h-64c-4.417969 0-8-3.582032-8-8v-16c0-4.417969 3.582031-8 8-8zm0 0"/><path d="m256 391.585938v48c0 4.417968 3.582031 8 8 8s8-3.582032 8-8v-48c0-4.417969-3.582031-8-8-8s-8 3.582031-8 8zm0 0"/><path d="m448 255.585938h-42.65625c1.730469-4.5 2.628906-9.277344 2.65625-14.097657v-89.902343c0-4.417969-3.582031-8-8-8s-8 3.582031-8 8v89.902343c.023438 6.050781-2.265625 11.882813-6.398438 16.304688l-.304687.28125c-2.320313 2.390625-5.117187 4.269531-8.207031 5.511719l-110.089844 44.472656c-17.3125 7.023437-36.679688 7.023437-53.992188 0l-110.097656-44.472656c-9.027344-3.613282-14.9375-12.371094-14.910156-22.097657v-116.0625l56 18.960938v63.199219c0 4.417968 3.582031 8 8 8s8-3.582032 8-8v-57.753907l74.496094 25.257813c3.570312 1.214844 7.445312 1.214844 11.015625 0l90.488281-30.703125v64.644531c-11.019531 3.898438-17.632812 15.167969-15.65625 26.6875s11.96875 19.941406 23.65625 19.941406 21.679688-8.421875 23.65625-19.941406-4.636719-22.789062-15.65625-26.6875v-70.046875l116.902344-39.632813c6.671875-2.132812 11.152344-8.382812 11.039062-15.386718-.117187-7-4.804687-13.097656-11.542968-15.011719l-223.382813-68.199219c-3.265625-1.003906-6.757813-1.003906-10.023437 0l-223.390626 68.167969c-6.738281 1.910156-11.425781 8.011719-11.5429682 15.011719-.1132813 7 4.3671872 13.253906 11.0390622 15.386718l60.902344 20.679688v121.488281c.027344 4.820313.929688 9.597657 2.664062 14.097657h-2.921874c-13.105469.011718-23.730469 10.636718-23.742188 23.742187v24.257813c0 4.417968 3.582031 8 8 8s8-3.582032 8-8v-24.257813c.007812-4.273437 3.472656-7.734375 7.742188-7.742187h14.058593c3.304688 2.878906 7.058594 5.1875 11.121094 6.839843l110.09375 44.472657c21.152344 8.589843 44.824219 8.589843 65.976563 0l63.007812-25.449219v30.136719c0 4.417968 3.582031 8 8 8s8-3.582032 8-8v-32c-.035156-1.453126-.476562-2.867188-1.28125-4.082032l32.359375-13.070312c4.0625-1.660156 7.820313-3.972656 11.128906-6.847656h53.792969c8.835938 0 16 7.164062 16 16v48c0 8.835937-7.164062 16-16 16h-408c-22.082031.027343-39.9726562 17.917968-40 40v48c.0273438 22.078124 17.917969 39.972656 40 40h352c4.417969 0 8-3.582032 8-8 0-4.417969-3.582031-8-8-8h-352c-13.253906 0-24-10.746094-24-24v-48c0-13.253907 10.746094-24 24-24h408c17.671875 0 32-14.328126 32-32v-48c0-17.675782-14.328125-32-32-32zm-104-16c-4.417969 0-8-3.582032-8-8 0-4.417969 3.582031-8 8-8s8 3.582031 8 8c0 4.417968-3.582031 8-8 8zm-103.664062-223.535157 223.425781 68.140625-121.691407 41.265625-98.277343-52.921875c-3.894531-2.09375-8.746094-.632812-10.839844 3.257813s-.636719 8.746093 3.253906 10.839843l85.144531 45.847657-81 27.464843c-.226562.078126-.476562.078126-.703124 0l-223.375-75.726562zm0 0"/><path d="m104 327.585938v-24c0-4.417969-3.582031-8-8-8s-8 3.582031-8 8v24c0 4.417968 3.582031 8 8 8s8-3.582032 8-8zm0 0"/></svg>