<svg xmlns="http://www.w3.org/2000/svg" xmlns:xlink="http://www.w3.org/1999/xlink" viewBox="0 0 1128.327 932.841"><style><![CDATA[.A, .B{fill:#065482}.A, .E, .F{opacity:0.1}.C, .F{fill:#444053}.D{fill:#3f3d56}.G{fill:#3acc6c}.H{fill:#7cfcff}.I{fill:url(#B)}.J{fill:#ee8e9e}.K{opacity:0.05}.L{fill:#e8eaf2}.M{fill:#303d5c}]]></style><defs><linearGradient id="A" x1=".5" y1="1" x2=".5"><stop offset="0" stop-color="gray" stop-opacity=".25"/><stop offset=".54" stop-color="gray" stop-opacity=".122"/><stop offset="1" stop-color="gray" stop-opacity=".102"/></linearGradient><linearGradient id="B" xlink:href="#A"/><path id="C" d="M418.04 297.955l-7.25-7.3a3.85 3.85 0 0 0-5.47 0l-45.53 45.1-19.26-19.4a3.84 3.84 0 0 0-5.43 0l-7.33 7.25a3.89 3.89 0 0 0 0 5.47l29.25 29.47a3.88 3.88 0 0 0 5.46 0l55.56-55.14a3.85 3.85 0 0 0 0-5.47z"/><path id="D" d="M723.4 891.83c3.54 2.42 7.94 3.17 12.2 3.72s8.64.95 12.5 2.85c3.33 1.64 6.13 4.34 9.66 5.52 3.2 1.07 6.7.78 10 .16 4-.74 8.18-2.2 10.32-5.6 1.9-3 1.7-6.9 1.44-10.47l-.9-12.15a5.93 5.93 0 0 0-.75-2.94c-2.87-4.17-9.83 1.75-13.55 1.74-5.9 0-12.25-3.2-16.5-7.12-.37-.4-.802-.74-1.28-1-1.7-.76-3.37.64-4.87 1.86-.16.14-.33.27-.5.4-3.45 2.74-8.07 3.3-12.33 4.4s-8.83 3.34-10.15 7.54a6.01 6.01 0 0 0-.2.81c-.76 3.93 1.6 8.02 4.9 10.3z"/><path id="E" d="M723.4 893.2c3.54 2.42 7.94 3.17 12.2 3.72s8.64.95 12.5 2.85c3.33 1.65 6.13 4.34 9.66 5.52 3.2 1.07 6.7.78 10 .16a16.56 16.56 0 0 0 10.32-7c1.9-3 1.7-6.9 1.44-10.47l-.9-12.15a5.93 5.93 0 0 0-.75-2.94c-2.87-4.17-9.83 1.75-13.55 1.74-5.9 0-12.25-3.2-16.5-7.12a4.99 4.99 0 0 0-1.28-1c-1.7-.76-3.37.64-4.87 1.86a35 35 0 0 0 4.15 8.56c3 4.4 7.72 7.75 13 8.14 2.64.2 5.35-.33 7.9.35s4.93 3.3 4 5.77-4 3-6.58 3.1c-3.6.2-7.3.37-10.73-.75-2.1-.7-4-1.85-6-2.7-8.65-3.6-19.58-1.58-26.73-7.64a15.2 15.2 0 0 0-2.18-1.67c-1.87 3.96 1.6 9.4 4.9 11.68z"/><path id="F" d="M817.3 628.4a53.18 53.18 0 0 1-7.3 39.26c-2 3.14-4.4 6.1-5.92 9.5a43.83 43.83 0 0 0-2.32 7.54l-6.56 27.2c-1.78 7.34-3.56 14.82-3 22.35.37 5.25 1.7 11.15-1.54 15.3-.797.8-1.47 1.692-2 2.68a6.85 6.85 0 0 0 0 3.54c3.32 19.74 5.8 40.37-.2 59.47-5.44 17.3-5.76 36.5-10.38 54-.57 2.18-1.23 4.47-2.88 6a9.39 9.39 0 0 1-4.3 2c-6.82 1.63-14-.28-20.38-3.22-4.47-2.07-9.28-5.7-8.9-10.6.2-2.34 1.55-4.4 2.48-6.54 1.8-4.22 2-8.93 2.45-13.5 1.23-11.48 4.77-22.55 7.44-33.78s4.5-22.95 2.23-34.27a299.54 299.54 0 0 0-22-67.82 8.07 8.07 0 0 0-2-3c-.9-.74-2.1-1.08-2.86-2a8.79 8.79 0 0 1-1.3-3.55c-1-3.58-3.95-6.22-5.93-9.37-5-7.94-3.42-18.12-3.23-27.5.18-9.13-1.13-18.34.36-27.34s6.65-18.2 15.33-21c4.3-1.4 8.95-1.08 13.45-.63 23.74 2.37 46.88 6.74 69.27 15.3z"/><path id="G" d="M848.6 474c.53 3.66-1.23 7.26-1.43 10.95-.17 3.22.86 6.37 1.45 9.55 2.3 12.4-2.1 24.95-6.6 36.73a18.9 18.9 0 0 0-1.56 6c-.12 3.85 2.1 7.37 2.7 11.17 1.27 8-4.6 15.5-4.74 23.58 0 3.72 1.12 7.5.2 11.1-.62 2.4-2.12 4.47-3.2 6.72-1.9 4-2.4 8.5-4.2 12.5-3.25 7.26-10.25 12-16.9 16.35-3.8-1.26-7.9-2.76-10-6.17a15.19 15.19 0 0 1-1.73-5.41c-1.44-8.27-1.4-16.7-1.34-25.1-.104-7.192.3-14.382 1.18-21.52 1.34-9.12 4.3-17.9 6.42-26.88 2.68-11.3 4-23 8.22-33.85 3.66-9.54 9.37-18.1 15.38-26.3 2.3-3.13 4.1-7.6 8.55-6.88a9.32 9.32 0 0 1 7.6 7.44z"/><path id="H" d="M753.16 422.6c3.7-2.3 8.06-3.28 12.35-4.07a26.01 26.01 0 0 1 7.86-.56c2.43.3 4.76 1.24 7.2 1.37 3.43.2 6.72-1.2 10-2.1s7.15-1.26 9.94.75a4.31 4.31 0 0 0 2.16 1.15 3.76 3.76 0 0 0 2.23-1.1 12.74 12.74 0 0 1 15.87.84c6.33 5.93 5.62 17.52 13 22 2.05 1.24 4.66 1.9 5.85 4 .283.662.618 1.3 1 1.9.495.546 1.103.98 1.78 1.27a34.9 34.9 0 0 1 6.12 3.51 8.76 8.76 0 0 1 3.52 5.9 11 11 0 0 1-1.09 5c-7.43 18.24-25.544 29.825-45.22 28.92-1.7-.08-3.52-.3-4.74-1.48a8.91 8.91 0 0 1-1.66-2.73c-3.48-7.3-10-12.7-14.2-19.66-2.48-4.14-4.07-8.77-6.65-12.85-3.84-6.2-9.8-10.8-15.6-15.2-3.28-2.5-6.93-5.12-11.06-4.95-3.67.16-6.35.36-5-4.15a14.41 14.41 0 0 1 6.31-7.77z"/></defs><path class="A" d="M655.7 124.475c-72.3-2.5-141.18-25.86-206.95-51.4s-130.9-53.84-201.5-67.37c-45.4-8.7-97.3-9.94-133.9 14.4-35.2 23.42-46.57 63.85-52.7 101.37-4.6 28.23-7.3 57.93 5.3 84.36 8.75 18.34 24.3 33.76 35 51.33 37.4 61.15 11 136.54-29.56 196.25-19 28-41.06 54.72-55.72 84.53s-21.42 63.97-8.53 94.43c12.72 30.14 43 52.78 75.87 68.7 66.64 32.3 145.23 41.55 221.86 46.8 169.64 11.6 340.2 6.58 510.28 1.55 62.94-1.87 126.17-3.75 188.1-13.5 34.4-5.4 69.9-14 94.86-34.7 31.7-26.3 39.55-70.8 18.3-103.78-35.62-55.3-134.1-69-159-128.38-13.7-32.66.37-69.05 20.3-99.34 42.72-65 114.33-122 118.1-196.3 2.6-51-31.83-102.12-85.06-126.26-55.8-25.3-133.16-22.12-174.33 19.77-42.4 43.13-116.88 59.72-180.73 57.5z"/><path class="B" d="M902.64 681.915a30.82 30.82 0 0 0-12.59-1.34c-5.17.56-4.44 8.43.75 8.06a37.18 37.18 0 0 0 7.66-1.41zm1.56.07a30.77 30.77 0 0 1 3.08 12.29c.17 5.2-7.73 5.57-8.1.38a37.62 37.62 0 0 1 .34-7.78zm11.77-16.84s-2.53-7.94-18-4.86c-7 1.4-6.8 11.43.2 12.5h.3c10.2 1.42 13.76-2.63 17.5-7.63zm1.6-.47s8.3.65 8.83 16.4c.24 7.1-9.57 9.24-12.2 2.66a1.43 1.43 0 0 0-.1-.3c-3.67-9.6-.54-14 3.48-18.77zm11.1-20.3a16.53 16.53 0 0 0-11.16-12.46c-10.47-3.3-16 12.36-5.77 16.34a32.68 32.68 0 0 0 13.24 1.92zm12.77-26.15s-4.23-10-15.2-12c-11.63-2.13-15.15 15.34-3.66 18.13a38.35 38.35 0 0 0 15.66.13zm7.7-25.75a24.82 24.82 0 0 0-16-11c-10-1.88-13.37 13.1-3.55 15.65a37.34 37.34 0 0 0 18.74-.26zm7.27-25.1a25.81 25.81 0 0 0-14-11.13c-10-3.07-14.94 12.1-5 15.4a28.47 28.47 0 0 0 18.14-.07zm3.1-22.87s-4-9.38-12.15-14.34c-9.08-5.53-17.73 8-9 14.1 5.38 3.77 12.27 6.37 20.32 4.63zm1.5-27.13s-4.4-9.47-12.87-14c-9.46-5-17.7 8.82-8.78 14.78 5.83 3.9 13.1 6.4 20.84 3.37zm-.94-24.74a61.37 61.37 0 0 0-12-13.65c-6.62-5.4-15 4.33-8.73 10.1 5.8 5.3 13 9.77 20.45 9.4zm-2.5-23.74a89.91 89.91 0 0 0-13.56-17.52c-5.18-5-12.84 2.62-8 7.9 5.6 6 13.13 12.22 22.2 14.94zm-4.86-27.92a80.15 80.15 0 0 0-10.83-13.41c-5.22-5.1-13.1 2.58-8.08 7.9 5.32 5.65 12.2 10.94 20.27 12.74zm-4.24-26.05a127.89 127.89 0 0 0-10.41-12.37c-4.18-4.3-10.86 1.75-6.92 6.3 4.63 5.34 10.57 10.07 17.4 10.83zm-4.4-24.16a130.33 130.33 0 0 0-10-16.45c-3.13-4.28-9.65.3-6.7 4.7 3.86 5.77 9.22 11.48 16.26 14.23zm-3.63-32.1s-2.47-4.2-6-9.06c-3.26-4.5-10.14.15-7.12 4.8 3.4 5.2 7.66 9.65 12.62 10.53z"/><path class="B" d="M938.7 337.375l-3.13-15.65c-.83-4.14-7-3.15-6.5 1 1.12 8.36 4 16.77 10.27 22.3zm1.86-44.48a3.07 3.07 0 0 0-5.86 1.68c.696 4.347 1.753 8.63 3.16 12.8zm-11.18 351.17a16.53 16.53 0 0 1 16.36 3.52c8 7.47-2.82 20-11.35 13.1-3.438-2.915-6.24-6.506-8.23-10.55zm12.78-26.8s10.52-2.54 18.66 5.08c8.63 8.08-3.3 21.3-12.4 13.74a38.29 38.29 0 0 1-9.43-12.51zm7.7-23.03a24.83 24.83 0 0 1 19-4.22c10 2 7.5 17.13-2.56 15.84a37.41 37.41 0 0 1-17.28-7.25zm7.08-26.72a25.78 25.78 0 0 1 17.12-5.11c10.46.9 9.34 16.8-1.13 16.14a28.41 28.41 0 0 1-16.8-6.85zm2.43-22.36s5.55-8.56 14.4-12.06c9.83-3.9 16.14 10.84 6.6 15.37-6 2.83-13.23 4.26-20.9 1.15zm.34-28.2s5.6-8.8 14.58-12.16c10-3.75 16.4 11.05 6.78 15.8-6.3 3.1-13.84 4.64-21.1.62z"/><path class="B" d="M957.83 492.375a61.29 61.29 0 0 1 8.8-15.9c5.3-6.7 15.6 1 10.7 8-4.52 6.43-10.56 12.32-18 13.57zm-.77-23.52a89.52 89.52 0 0 1 8.12-20.66c3.6-6.22 13.06-1.07 9.84 5.35-3.68 7.35-9.2 15.4-17.14 20.55zm-5.8-29.18c2.16-5.547 4.93-10.836 8.26-15.77 4.12-6 13.25-.12 9.48 6.08-4.1 6.76-9.88 13.56-17.63 17zm-4.62-24.9a128.52 128.52 0 0 1 4.33-15.57c2-5.67 10.6-2.93 8.9 2.84-2 6.78-5.43 13.55-11.32 17.08zm-3.2-24.48a129.41 129.41 0 0 1 6-18.3c2.08-4.88 9.48-1.9 7.6 3.05-2.44 6.5-6.36 13.28-12.58 17.56zm-4.8-29.44s.94-4.77 2.65-10.54c1.58-5.32 9.62-3.23 8.3 2.16-1.46 6-4 11.65-8.4 14.13zm1.1-24.54l5.44-15c1.44-4 7.44-2.06 6.27 2-2.35 8.1-6.43 16-13.48 20.5zm6.78-41.85l2.15-1.75c2.65-2.2 6.1 1.64 3.6 4a51 51 0 0 1-14.79 9.38zm-.36-8.7a196.97 196.97 0 0 1 10.85-19.32 2 2 0 0 0-3.24-2.29c-3.2 4.38-6.34 10.8-8.72 20.2z"/><path class="C" d="M939.96 365.175l1.16-.12c-5-46.6-2.9-75.35 5.85-80.92l-.63-1c-9.26 5.93-11.46 34.3-6.38 82.04z"/><path class="C" d="M957.16 475.375l1.73-.26c-.65-4.3-1.4-8.7-2.24-13-7.28-37.83-12.94-72.8-15.77-99.36l-1.27-1c2.84 26.6 8 62.8 15.33 100.67a336.89 336.89 0 0 1 2.22 12.95z"/><path class="C" d="M876.16 710.955c.26-.2 26.9-20.6 50.3-59.68a251.92 251.92 0 0 0 29.6-73.8c7.4-32.5 7.6-70.37 2.27-105.83l-1.56 1.25c12 79.58-10.9 141.37-32.25 177.1-23.16 38.73-49.5 58.9-49.76 59.1z"/><ellipse class="B" cx="194.02" cy="697.975" rx="66.55" ry="12.8"/><ellipse class="D" cx="192.9" cy="692.535" rx="7.75" ry="10.14"/><ellipse class="D" cx="192.9" cy="680.135" rx="7.75" ry="10.14"/><ellipse class="D" cx="192.9" cy="667.745" rx="7.75" ry="10.14"/><ellipse class="D" cx="192.9" cy="655.345" rx="7.75" ry="10.14"/><ellipse class="D" cx="192.9" cy="642.945" rx="7.75" ry="10.14"/><ellipse class="D" cx="192.9" cy="630.555" rx="7.75" ry="10.14"/><ellipse class="D" cx="192.9" cy="618.155" rx="7.75" ry="10.14"/><path class="B" d="M221.9 533.315a36.52 36.52 0 0 0 2.89-4.25l-20.36-3.34 22 .16a37.14 37.14 0 0 0 .71-29.4l-29.54 15.32 27.24-20a37.12 37.12 0 1 0-61.3 41.53 37.49 37.49 0 0 0-4.23 6.77l26.43 13.73-28.16-9.46a37.13 37.13 0 0 0 6 34.85c-11.975 15.216-10.242 37.082 3.98 50.22s36.156 13.14 50.38 0 15.956-35.005 3.98-50.22c10.6-13.46 10.6-32.43 0-45.9z"/><path class="E" d="M155.62 556.265a37 37 0 0 0 7.94 22.94c-11.975 15.217-10.242 37.082 3.98 50.222s36.156 13.14 50.38 0 15.956-35.005 3.98-50.222c4.98-6.3-66.28-27.1-66.28-22.94z"/><path d="M231.97 261.245v441.7c0 8.516 6.904 15.42 15.42 15.42h633.87c8.516 0 15.42-6.904 15.42-15.42v-441.7z" fill="#fff"/><rect class="E" width="158.9" height="93.27" rx="8.65" x="284.57" y="300.785"/><rect class="E" width="158.9" height="93.27" rx="8.65" x="484.88" y="300.785"/><rect class="B" width="154.43" height="90.64" rx="8.65" x="286.8" y="302.095"/><rect class="F" width="154.43" height="90.64" rx="8.65" transform="matrix(-1 0 0 -1 841.849976 392.735016)" x="0" y="0"/><rect class="B" width="154.43" height="90.64" rx="8.65" transform="matrix(-1 0 0 -1 641.539978 392.735016)" x="0" y="0"/><rect class="F" width="154.43" height="90.64" rx="8.65" x="286.8" y="433.025"/><rect class="F" width="154.43" height="90.64" rx="8.65" transform="matrix(-1 0 0 -1 841.849976 523.664978)" x="0" y="0"/><rect class="F" width="154.43" height="90.64" rx="8.65" transform="matrix(-1 0 0 -1 641.539978 523.664978)" x="0" y="0"/><rect class="F" width="154.43" height="90.64" rx="8.65" x="286.8" y="563.955"/><rect class="F" width="154.43" height="90.64" rx="8.65" transform="matrix(-1 0 0 -1 841.849976 654.60498)" x="0" y="0"/><rect class="F" width="154.43" height="90.64" rx="8.65" transform="matrix(-1 0 0 -1 641.539978 654.60498)" x="0" y="0"/><path class="B" d="M231.97 183.235v80.25h664.7v-80.25a15.42 15.42 0 0 0-15.42-15.43H247.4a15.42 15.42 0 0 0-15.42 15.43zm164.5 23.74c-6.8 0-12.3-5.512-12.3-12.3s5.51-12.3 12.3-12.3 12.3 5.512 12.3 12.3-5.51 12.3-12.3 12.3zm335.7 0c6.8-.006 12.327-5.53 12.324-12.34s-5.524-12.33-12.334-12.33-12.33 5.52-12.334 12.33 5.514 12.334 12.324 12.34z"/><path class="E" d="M396.47 180.115a14.55 14.55 0 1 0 14.54 14.547 14.55 14.55 0 0 0-14.54-14.547zm0 26.86a12.3 12.3 0 0 1-12.3-12.3 12.31 12.31 0 0 1 12.3-12.3 12.31 12.31 0 0 1 12.3 12.3 12.31 12.31 0 0 1-12.3 12.3zm335.7-26.86a14.55 14.55 0 1 0 14.55 14.55c0-8.036-6.514-14.55-14.55-14.55zm0 26.86a12.31 12.31 0 1 1 12.31-12.311 12.3 12.3 0 0 1-12.3 12.3z"/><circle class="A" cx="1033.1" cy="419.945" r="15.27"/><circle class="A" cx="1087.73" cy="351.845" r="25.6"/><circle class="A" cx="1053.84" cy="476.065" r="25.6"/><circle class="A" cx="36.25" cy="345.565" r="36.25"/><path class="E" d="M862.35 582.305s-7.88 5.26-7.88 9.2-2 39.4-2 39.4v25s1.3 13.14 0 16.42 0 18.4 0 20.36 2-20.36 2-20.36v-23.68l2-53.86z"/><use xlink:href="#C" class="G"/><use xlink:href="#C" x="201" class="G"/><path d="M739.03 431.75h46.13v44.66h-46.13z" fill="url(#A)"/><path d="M739.82 432.52h44.54v43.12h-44.54z" class="H"/><path d="M796 460.66h46.13v44.66H796z" class="I"/><path d="M796.8 461.43h44.54v43.12H796.8z" class="H"/><path d="M749.86 321.83H796v44.66h-46.13z" class="I"/><path class="J" d="M760.7 418.87c-.13 5.07-1.85 10-2.12 15.06 15 .74 29.7-6.5 44.48-4.3-4.13-2.67-6.34-7.5-7.64-12.25a50.61 50.61 0 0 1-1.46-18.82 7.61 7.61 0 0 1 .18-1c.55-2.48 2-6 1.6-7.95-.5-2.58-2.94-2.07-5.13-1.92a194.15 194.15 0 0 0-19.94 2.57c-1.72.3-18.47 4.48-18.72 4.05 2.76 4.77 5.57 9.73 7.25 14.93a28.85 28.85 0 0 1 1.5 9.62zM612.9 403.2a21.64 21.64 0 0 0 4.57 4.6l3.5 2.73a15 15 0 0 0 7.47 3c3.56.24 11.12-1.85 13.33-4.9a8.82 8.82 0 0 0 1.27-5.1 23.65 23.65 0 0 0-1.22-7.14 39.7 39.7 0 0 0-5.77-10.42c-2.57-3.58-5.43-7.1-9.26-9.27a34.72 34.72 0 0 0-3.94-1.8l-7-2.86a3.51 3.51 0 0 0-1.27-.33c-1.87 0-2.2 2.87-1.15 4.4 2.12 3.1 6.9 4 8.23 7.5a5.34 5.34 0 0 0-5 3.84 2.74 2.74 0 0 1-.67 1.56c-.6.5-1.57.2-2.27.58-1.23.66-.7 2.5-.82 3.9-.12 1.24-.9 2.3-1.28 3.5a7.44 7.44 0 0 0 1.27 6.21z"/><path d="M818.9 912c-1.15-1.15-3-.95-4.64-.7a172.42 172.42 0 0 1-26.07 2.11c-1.1-5.34 2.08-10.53 3.1-15.88a14 14 0 0 1 1-4c1.22-2.36 4-3.44 6.6-4 4.7-1 12-2.74 14.67 2 3.2 5.7 4.2 14.13 5.34 20.47z" fill="#65617d"/><use xlink:href="#D" class="D"/><use xlink:href="#D" class="K"/><use xlink:href="#E" class="L"/><use xlink:href="#E" class="K"/><use xlink:href="#F" class="M"/><use xlink:href="#F" class="K"/><path class="M" d="M720.22 685.63a57.7 57.7 0 0 0 1.2 10.54q6.3 35.35 13.43 70.54l1.38 6.07a49.31 49.31 0 0 0 9.1 17.9c19.8 24.68 21.5 60.53 32.26 90.3l2.22 6a147.28 147.28 0 0 0 6.63 14.79 4.2 4.2 0 0 0 1.36 1.77c.668.334 1.415.48 2.16.42a62.99 62.99 0 0 0 27.95-6.33 5.81 5.81 0 0 0 3-2.46 6.05 6.05 0 0 0 .31-2.84c-.3-5.9-.66-12-3.47-17.2a36.9 36.9 0 0 0-6.88-8.34c-.84-18.52-2.67-37.08-6.74-55.17-2.1-9.25-4.68-18.6-10-26.42-4-5.77-9.64-11.46-8.94-18.43.3-3 1.6-6.86-.9-8.66-1.1-.8-2.7-.9-3.43-2a3.79 3.79 0 0 1-.48-1.72 42.75 42.75 0 0 1 .88-14.3c.72-3.1 1.8-6.14 2.13-9.3s-.23-6.62-2.34-9l-.1-19.3c-.06-3.63-.13-7.3.9-10.78.5-1.67 1.22-3.26 1.6-5 1.33-6.1-2-13.42 2-18.26 1.65-2 4.2-3 6.34-4.46 4.3-2.88 7.13-7.58 8.7-12.5s2-10.15 2.47-15.32a15.94 15.94 0 0 0 0-3.31 5.93 5.93 0 0 0-.44-1.65c-1.23-2.76-4.53-3.83-7.47-4.54a241.4 241.4 0 0 0-57-6.66c-7.1-4.84-11.1-3.1-14.1 2a53.48 53.48 0 0 0-4 9.8c-1.38 4.15-1.46 27.4-2.8 31.58-1.87 5.46 3.16 16.54 3.1 22.24z"/><use xlink:href="#G" class="B"/><use xlink:href="#G" class="K"/><path class="E" d="M751.9 394.28c2.76 4.77 5.57 9.73 7.25 14.93a34.41 34.41 0 0 0 8.23 1c10.77 0 18.4-6.13 24.73-13.87.55-2.5 4-4.8 3.58-6.76-.5-2.58-2.94-2.07-5.13-1.92a194.15 194.15 0 0 0-19.94 2.57c-1.72.3-18.44 4.48-18.72 4.05z"/><circle class="J" cx="767.42" cy="374.76" r="34.51"/><path class="E" d="M723.8 622.03c6-.35 12-.1 18 .13a60.54 60.54 0 0 1 11.16 1.15c4.53 1 8.77 3.1 13.24 4.38 7.16 2.1 14.72 2.18 22.13 2.9a126.54 126.54 0 0 1 14.49 2.27c-.066-.568-.214-1.124-.44-1.65-1.23-2.76-4.53-3.83-7.47-4.54a241.4 241.4 0 0 0-57-6.66c-7.1-4.84-11.1-3.1-14.1 2z"/><path class="B" d="M747.33 431.26c1.5 1.74 3.53 3.66 5.76 3.1a8.09 8.09 0 0 0 2.24-1.2c4-2.57 8.86-3.17 13.54-3.87a200.53 200.53 0 0 0 27.9-6.27 28.39 28.39 0 0 1 8.25-1.68c5.85 0 11 3.92 14.7 8.48s6.26 9.9 9.86 14.5c2.56 3.3 5.6 6.2 8 9.6 6 8.6 7.34 19.85 5.78 30.26s-5.72 20.2-9.84 29.9a106.37 106.37 0 0 1-8 16.19c1.4 7.9.66 16.95-3.1 24-1.23 2.3-2.73 4.56-3.13 7.15-.2 1.747-.12 3.513.2 5.24l1.76 12.5 1.76 11.4c1.27 6.92 3 14.43-.2 20.7-3.84 7.5.2 17.1-.82 25.46-10.797-4.174-22.1-6.865-33.63-8-7.42-.73-15-.82-22.13-2.9-4.47-1.3-8.7-3.36-13.24-4.4a61.35 61.35 0 0 0-11.17-1.14c-8.27-.33-16.6-.66-24.78.56-.67.1-1.47.15-1.87-.4a1.79 1.79 0 0 1-.25-1 16.45 16.45 0 0 1 2.12-8.78c1-1.84 2.5-3.65 2.45-5.76a8.66 8.66 0 0 0-.72-2.86l-3.62-9.68c-3.07-8.16-1.6-17.65-3.2-26.22a153.98 153.98 0 0 1-2.38-20.29c-.3-5.82-.1-12.13 3.4-16.78 1.028-1.12 1.917-2.358 2.65-3.7a11.09 11.09 0 0 0 .63-4.41q.12-17.46-1-34.9l9.32-16.63c3.56-6.4 7.18-12.93 8.62-20.1 1-4.76.92-9.65 1.6-14.45a6.25 6.25 0 0 1 1.22-3.38c1.17-1.32 3.14-1.5 4.9-1.46a21.55 21.55 0 0 1 6.42 1.25z"/><path class="E" d="M620.98 410.52a15 15 0 0 0 7.47 3c3.56.24 11.12-1.85 13.33-4.9a8.82 8.82 0 0 0 1.27-5.1c-.48-.157-.977-.254-1.48-.3-3.87-.23-7.82-.46-11.58.47s-7.4 3.2-9 6.75z"/><path class="B" d="M735.8 485.17c-2.1 2.6-4.3 5.3-7.27 6.85-3.43 1.78-7.47 1.82-11.33 1.74a270.92 270.92 0 0 1-47.35-5.2 29.23 29.23 0 0 1-5.21-1.4 27.8 27.8 0 0 1-5.27-3.28c-5.13-3.7-10.34-7.45-14.25-12.43a41.83 41.83 0 0 1-8.44-20.71c-3.72-3.42-5.7-8.3-7.55-13a20.11 20.11 0 0 1-1.72-6.3c-.1-2.23 1.38-4.57 1-6.77a17.9 17.9 0 0 0-5.47-9.85 3.57 3.57 0 0 1-1.31-1.73 2.8 2.8 0 0 1 .32-1.69c1.58-3.54 5.22-5.82 9-6.75s7.7-.7 11.58-.46c1.4.1 2.42.74 3.8 1l2.7 7.1a9.22 9.22 0 0 0 1.77 3.24 18.27 18.27 0 0 0 1.9 1.5 11 11 0 0 1 3.8 9.58 10.29 10.29 0 0 1 6.09 12.7 12.14 12.14 0 0 1 8.9 7.84 5.88 5.88 0 0 0 1.16 2.44 4.76 4.76 0 0 0 3.11 1c3 .2 5.7 2.6 8.48 1.3a17.19 17.19 0 0 1 10.03-1.41c.704.168 1.428.232 2.15.2.615-.108 1.2-.314 1.76-.6a14.44 14.44 0 0 1 4-1.58 3.74 3.74 0 0 1 3.79 1.47c1-1.06 1.55-2.42 2.43-3.55a3.88 3.88 0 0 1 3.68-1.76c-.92-.82 0-2.45 1.2-2.75s2.45.14 3.68.14c3.2 0 5.64-2.92 8.74-3.68 2.85-.7 6.65.14 8.1-2.4.52-.9.62-2.12 1.5-2.67a2.87 2.87 0 0 1 1.92-.23 18.92 18.92 0 0 1 5.83 1.77c3 11.7 1.42 23.83-.86 35.68-1.1 5.63-2.8 10.2-6.4 14.7z"/><path class="E" d="M735.9 527.06l14.86 30c-1.6-2.77-5-3.85-7.67-5.62a20.32 20.32 0 0 1-7.33-9.85 60.48 60.48 0 0 1-2.86-12.18c-.3-1.9-.93-4.57 0-6.3 1.73.35 2.3 2.53 3 3.94zm42.76 25.4c3.35 3.32 7.46 5.76 11.15 8.7 8.62 6.86 14.76 16.28 20.76 25.52a40.39 40.39 0 0 1 4.24 7.78c-.7.6-1.75 0-2.44-.63l-11.68-10.26c-1.432-1.173-2.735-2.494-3.9-3.94-2-2.72-2.92-6.13-4.76-9s-4.52-5-7.1-7.23-15-12.7-12-16.75c2.17 1.08 3.96 4.08 5.7 5.8z"/><use xlink:href="#H" class="B"/><use xlink:href="#H" class="K"/><path class="D" d="M735.2 922.82c2.5 2.33 5.94 3.35 9.27 4.08 7.6 1.66 15.35 2.25 23.1 2.85l7.54.58c7.36.55 14.73 1.12 22.12 1.15a152.18 152.18 0 0 0 27.2-2.35 2.3 2.3 0 0 0 2.49-2.76 131.42 131.42 0 0 0-3.34-27.31c-.86-3.68-7.46 4.57-7.75 4.92-1.83 2.08-3.22 3-6 3.18-7.6.42-16.1-4.2-22.13-8.3-1.3-.964-2.662-1.814-4.1-2.54a11.81 11.81 0 0 0-3.31-1 20.05 20.05 0 0 0-11.3 2.29c-4.53 2.25-8.5 5.48-13 7.8-3.647 1.88-7.586 3.128-11.65 3.7-4.1.57-9 .84-11.13 4.4-1.75 2.98-.5 6.98 2 9.33z"/><path class="L" d="M735.2 924.18c2.5 2.33 5.94 3.35 9.27 4.08 7.6 1.66 15.35 2.25 23.1 2.85l7.54.58c7.36.55 14.73 1.12 22.12 1.15a152.15 152.15 0 0 0 27.2-2.35 3 3 0 0 0 2.16-1c.32-.5 1.7-2.5 1.68-3.08-.15-9.2-2.64-18.36-4.7-27.3-.86-3.68-7.46 4.57-7.75 4.92-1.83 2.08-3.22 3-6 3.18-7.6.42-16.1-4.2-22.13-8.3a27.66 27.66 0 0 0-4.1-2.54c-1.048-.494-2.164-.83-3.3-1 1 5.46 8.8 12.06 12.85 14.07 8.18 4.06 17.9 2 27 2.5a3.71 3.71 0 0 1 1.91.47c1.1.72 1.16 2.27 1.13 3.58-.08 2.18-.36 4.73-2.24 5.84a6.38 6.38 0 0 1-3 .63 427.56 427.56 0 0 1-67.4-2.36 37.25 37.25 0 0 1-11-2.44c-2.298-1.073-4.44-2.453-6.37-4.1-2.84 2.27-.44 8.3 2.05 10.62z"/><path class="D" d="M754 374.4c.13 3.57-2.3 10.5 4.37 8.56 4-1.16 5.1-5.87 10.15-4.82s6.2 7.27 7.92 11.34a21.69 21.69 0 0 0 15.72 12.71 9.45 9.45 0 0 0 4.33 0c3.26-.93 5.12-4.3 6.45-7.4a59.21 59.21 0 0 0 2.85-8.12 34.57 34.57 0 0 0 1-6 27 27 0 0 0 0-4.12c-.6-8.1-5.22-15.5-11.14-21.1s-13.1-9.63-20.18-13.62c-2.317-1.448-4.824-2.565-7.45-3.32a24.93 24.93 0 0 0-7.86-.32 27.12 27.12 0 0 0-10 2.35 14.16 14.16 0 0 0-3.52 2.47 10.54 10.54 0 0 0-3 5.09c-1.28 5.25 2.06 10 4.78 14.1 2.4 3.7 5.4 7.6 5.58 12.2z"/><path class="E" d="M641.68 450.98c1.43-3.6 7.43-13.53 5.7-16.95-1.797 2.552-3.326 5.283-4.56 8.15-1.13 2.78-.2 6.5-1.13 8.8zm106.58-88.78c-2.72-4.15-6.07-8.87-4.8-14.1a11.11 11.11 0 0 1 3.88-5.81 9.66 9.66 0 0 0-1 2.45c-1.28 5.24 2.07 10 4.8 14.1 2.4 3.68 5.4 7.6 5.58 12.18.13 3.56-2.3 10.5 4.37 8.56 4-1.15 5.1-5.87 10.15-4.8s6.2 7.26 7.9 11.33a21.73 21.73 0 0 0 15.76 12.71 9.45 9.45 0 0 0 4.33 0c.72-.215 1.396-.553 2-1a8.78 8.78 0 0 1-4.94 4.36 9.45 9.45 0 0 1-4.33 0 21.73 21.73 0 0 1-15.7-12.71c-1.7-4.07-2.82-10.27-7.9-11.34s-6.17 3.67-10.15 4.82c-6.68 1.93-4.24-5-4.37-8.56-.17-4.6-3.17-8.5-5.58-12.18z"/><path class="E" d="M746.78 355.12a31.14 31.14 0 0 0 2 2.92 36.43 36.43 0 0 0 4.72 4.9 36.98 36.98 0 0 0 3.19 2.5c2.05 1.44 4.202 2.726 6.44 3.85 6.53 3.3 13.6 5.35 20.62 7.38l13.78 4 8.2 6a34.45 34.45 0 0 0 1-6 27 27 0 0 0 0-4.12c-.6-8.1-5.22-15.5-11.14-21.1s-13.1-9.63-20.18-13.62c-2.317-1.448-4.824-2.565-7.45-3.32a24.93 24.93 0 0 0-7.86-.32 27.12 27.12 0 0 0-10 2.35 14.16 14.16 0 0 0-3.52 2.47c-.784 1.145-1.38 2.408-1.77 3.74-.78 2.84.42 5.88 1.96 8.4z"/><path class="B" d="M746.78 354.2a31.1 31.1 0 0 0 2 2.92 36.43 36.43 0 0 0 4.72 4.9c1.017.9 2.082 1.726 3.2 2.5 2.05 1.44 4.202 2.726 6.44 3.85 6.53 3.3 13.6 5.35 20.62 7.4l13.78 4c4.8 3.64 20.9 15.56 23.6 14.07 3.2-1.75-14.28-14.12-14.28-14.12l-.8.6c2.56-1.6 3.9-5.34 4.48-8.56 1-5.77 1.5-11.77.13-17.47s-4.8-11.13-10-13.8c-2.32-1.2-5.13-2-6.8-3.83a4.91 4.91 0 0 1-.66-.89 4.34 4.34 0 0 1-.26-.47 6.14 6.14 0 0 0-.73-1.42c-1-1.1-2.7-.78-4.15-.6l-.46.05h-.78c-5.18.12-10.2-2.77-15.44-2.77-5.75 0-10.63 3.32-15.7 5.6l-2.9 1.3c-3.65 1.7-6.4 3.5-7.9 8.35-.84 2.85.36 5.9 1.9 8.4z"/><path class="E" d="M786.85 333.34a2.35 2.35 0 0 0 .54 3 4.29 4.29 0 0 0 2.18.78c.56.073 1.125.117 1.7.13a4.65 4.65 0 0 0 2.24-.39 2 2 0 0 0 .39-.25c-.253-.27-.474-.57-.66-.9-.13.1-.26.08-.78 0-.946-.05-1.882-.2-2.8-.48a2.74 2.74 0 0 1-2-2zm19.7 46.2a6.58 6.58 0 0 1-2.38.9 9.65 9.65 0 0 1-1.85.3 10.18 10.18 0 0 1-4.5-1.27z"/></svg>