<svg height="480pt" viewBox="0 0 480 480" width="480pt" xmlns="http://www.w3.org/2000/svg"><path d="m456 432h-16v-186.015625c16.617188-5.199219 27.949219-20.570313 28-37.984375v-64c-.070312-17.394531-11.398438-32.738281-28-37.929688v-34.070312c-.042969-39.746094-32.253906-71.9570312-72-72h-256c-39.746094.046875-71.953125 32.253906-72 72v34.046875c-16.609375 5.195313-27.9375 20.550781-28 37.953125v64c.050781 17.414062 11.382812 32.78125 28 37.984375v186.015625h-16c-13.253906 0-24 10.746094-24 24s10.746094 24 24 24h432c13.253906 0 24-10.746094 24-24s-10.746094-24-24-24zm-400-360c.035156-30.914062 25.085938-55.964844 56-56h256c30.914062.035156 55.964844 25.085938 56 56v32h-368zm-28 72c0-13.253906 10.746094-24 24-24h376c13.253906 0 24 10.746094 24 24v8h-424zm0 64v-40h424v40c0 13.253906-10.746094 24-24 24h-24c-13.253906 0-24-10.746094-24-24v-16c0-4.417969-3.582031-8-8-8s-8 3.582031-8 8v16c0 13.253906-10.746094 24-24 24h-24c-13.253906 0-24-10.746094-24-24v-16c0-4.417969-3.582031-8-8-8s-8 3.582031-8 8v16c0 13.253906-10.746094 24-24 24h-24c-13.253906 0-24-10.746094-24-24v-16c0-4.417969-3.582031-8-8-8s-8 3.582031-8 8v16c0 13.253906-10.746094 24-24 24h-24c-13.253906 0-24-10.746094-24-24v-16c0-4.417969-3.582031-8-8-8s-8 3.582031-8 8v16c0 13.253906-10.746094 24-24 24h-24c-13.253906 0-24-10.746094-24-24zm164 192h-24c-4.417969 0-8 3.582031-8 8s3.582031 8 8 8h24v48h-96v-120c0-13.253906 10.746094-24 24-24h48c13.253906 0 24 10.746094 24 24zm264 64h-248v-120c-.027344-22.082031-17.917969-39.972656-40-40h-48c-22.082031.027344-39.972656 17.917969-40 40v120h-56c-4.417969 0-8-3.582031-8-8s3.582031-8 8-8h24c4.417969 0 8-3.582031 8-8v-192h20c12.640625-.03125 24.515625-6.058594 32-16.246094 7.484375 10.183594 19.359375 16.214844 32 16.246094h24c12.640625-.03125 24.515625-6.058594 32-16.246094 7.484375 10.183594 19.359375 16.214844 32 16.246094h24c12.640625-.03125 24.515625-6.058594 32-16.246094 7.484375 10.183594 19.359375 16.214844 32 16.246094h24c12.640625-.03125 24.515625-6.058594 32-16.246094 7.484375 10.183594 19.359375 16.214844 32 16.246094h20v184h-184c-4.417969 0-8 3.582031-8 8s3.582031 8 8 8h216c4.417969 0 8 3.582031 8 8s-3.582031 8-8 8zm0 0"/><path d="m360 40h-128c-4.417969 0-8 3.582031-8 8s3.582031 8 8 8h128c4.417969 0 8 3.582031 8 8s-3.582031 8-8 8h-240c-4.417969 0-8-3.582031-8-8s3.582031-8 8-8h56c4.417969 0 8-3.582031 8-8s-3.582031-8-8-8h-56c-13.253906 0-24 10.746094-24 24s10.746094 24 24 24h240c13.253906 0 24-10.746094 24-24s-10.746094-24-24-24zm0 0"/><path d="m272 416h96c22.082031-.027344 39.972656-17.917969 40-40v-48c-.027344-22.082031-17.917969-39.972656-40-40h-96c-22.082031.027344-39.972656 17.917969-40 40v48c.027344 22.082031 17.917969 39.972656 40 40zm96-112c13.253906 0 24 10.746094 24 24v8h-32v-32zm-24 0v32h-48v-32zm-96 24c0-13.253906 10.746094-24 24-24h8v32h-32zm48 24h96v24c0 13.253906-10.746094 24-24 24h-96c-13.253906 0-24-10.746094-24-24v-24zm0 0"/></svg>