<svg height="480pt" viewBox="0 0 480.07887 480" width="480pt" xmlns="http://www.w3.org/2000/svg"><path d="m272 352.039062c-27.8125.03125-51.386719 20.472657-55.359375 48h-32.640625c-22.082031.027344-39.972656 17.921876-40 40 0 13.253907-10.746094 24-24 24h-80c-13.253906 0-24-10.746093-24-24v-48c0-13.253906 10.746094-24 24-24h80c22.082031-.027343 39.972656-17.917968 40-40-.046875-.46875-.140625-.933593-.28125-1.382812 9.695312-3.292969 16.234375-12.378906 16.28125-22.617188v-9.976562c66.6875-10.40625 118.410156-63.730469 126.785156-130.703125.882813-6.945313-1.253906-13.9375-5.875-19.199219-2.445312-2.75-5.496094-4.898437-8.910156-6.273437v-73.847657c-.027344-22.078124-17.917969-39.972656-40-40h-9.136719c-3.636719-14.085937-16.316406-23.945312-30.863281-23.9999995h-24c-4.417969 0-8 3.5820315-8 7.9999995v48c0 4.417969 3.582031 8 8 8h24c14.546875-.054687 27.226562-9.914062 30.863281-24h9.136719c13.253906 0 24 10.746094 24 24v73.160157c-9.074219 2.875-15.652344 10.761719-16.847656 20.207031-6.667969 51.886719-50.839844 90.746094-103.152344 90.746094s-96.484375-38.859375-103.152344-90.746094c-1.195312-9.445312-7.773437-17.332031-16.847656-20.207031v-73.160157c0-13.253906 10.746094-24 24-24h9.136719c3.636719 14.085938 16.316406 23.945313 30.863281 24 4.417969 0 8-3.582031 8-8 0-4.417968-3.582031-8-8-8-8.835938 0-16-7.164062-16-16 0-8.835937 7.164062-16 16-16h16v24c0 4.417969 3.582031 8 8 8s8-3.582031 8-8v-32c0-4.417968-3.582031-7.9999995-8-7.9999995h-24c-14.546875.0546875-27.226562 9.9140625-30.863281 23.9999995h-9.136719c-22.082031.027344-39.972656 17.921876-40 40v73.847657c-3.414062 1.371093-6.460938 3.511719-8.910156 6.257812-4.621094 5.261719-6.757813 12.253907-5.875 19.199219 8.367187 66.976562 60.09375 120.308594 126.785156 130.71875v9.976562c.046875 10.238282 6.585938 19.324219 16.28125 22.617188-.140625.449219-.234375.914062-.28125 1.382812 0 13.253907-10.746094 24-24 24h-80c-22.082031.027344-39.9726562 17.921876-40 40v48c.0273438 22.082032 17.917969 39.972657 40 40h80c22.082031-.027343 39.972656-17.917968 40-40 0-13.253906 10.746094-24 24-24h32.640625c4.269531 29.589844 31.03125 50.605469 60.789063 47.742188 29.761718-2.863281 52.019531-28.597656 50.570312-58.460938-1.453125-29.859374-26.101562-53.316406-56-53.28125zm-64-304h-16v-32h16c8.835938 0 16 7.164063 16 16 0 8.835938-7.164062 16-16 16zm-71.121094 231.074219c-62.40625-6.730469-112-55.484375-119.789062-117.769531-.316406-2.394531.417968-4.808594 2.007812-6.625 1.488282-1.714844 3.652344-2.691406 5.925782-2.679688 4.167968.0625 7.617187 3.257813 8 7.410157 7.710937 59.847656 58.671874 104.664062 119.015624 104.664062 60.347657 0 111.304688-44.816406 119.015626-104.664062.382812-4.121094 3.785156-7.304688 7.921874-7.410157 2.273438-.011718 4.4375.964844 5.925782 2.679688 1.589844 1.816406 2.324218 4.230469 2.007812 6.625-7.789062 62.285156-57.382812 111.039062-119.789062 117.769531-4.054688.445313-7.121094 3.871094-7.121094 7.949219v16.976562c0 4.417969-3.582031 8-8 8s-8-3.582031-8-8v-16.976562c0-4.078125-3.066406-7.503906-7.121094-7.949219zm135.121094 168.925781c-22.089844 0-40-17.910156-40-40 0-22.089843 17.910156-40 40-40s40 17.910157 40 40c-.027344 22.082032-17.917969 39.972657-40 40zm0 0"/><path d="m272 384.039062c-4.417969 0-8 3.582032-8 8 0 4.417969 3.582031 8 8 8s8 3.582032 8 8c0 4.417969-3.582031 8-8 8s-8-3.582031-8-8c0-4.417968-3.582031-8-8-8s-8 3.582032-8 8c0 13.253907 10.746094 24 24 24s24-10.746093 24-24c0-13.253906-10.746094-24-24-24zm0 0"/><path d="m420.167969 272.175781c-17.570313-1.199219-34.839844 5.011719-47.625 17.121094-5.015625 4.71875-9.25 10.203125-12.542969 16.253906-3.292969-6.050781-7.527344-11.535156-12.542969-16.253906-12.78125-12.117187-30.054687-18.324219-47.625-17.121094-31.175781 2.789063-56.007812 27.265625-59.238281 58.398438-.402344 2.855469.765625 5.707031 3.054688 7.460937 2.289062 1.757813 5.34375 2.144532 8 1.015625 2.652343-1.132812 4.492187-3.601562 4.816406-6.46875 2.277344-23.507812 20.875-42.121093 44.382812-44.414062 13.152344-.894531 26.078125 3.746093 35.65625 12.800781 9.894532 9.339844 15.5 22.351562 15.496094 35.957031 0 4.421875 3.582031 8 8 8s8-3.578125 8-8c-.003906-13.605469 5.601562-26.617187 15.496094-35.957031 9.582031-9.050781 22.507812-13.6875 35.65625-12.800781 26.949218 2.808593 46.792968 26.527343 44.800781 53.550781-3.199219 71.394531-73.328125 114.9375-103.945313 122.152344-8.546874-2.25-16.789062-5.539063-24.542968-9.785156-2.539063-1.542969-5.726563-1.550782-8.277344-.019532-2.546875 1.53125-4.035156 4.347656-3.863281 7.316406.167969 2.964844 1.96875 5.59375 4.675781 6.824219 9.546875 5.277344 19.777344 9.203125 30.398438 11.671875 1.058593.214844 2.144531.214844 3.203124 0 38.222657-7.757812 114.710938-57.542968 118.335938-137.464844 2.347656-35.722656-24.128906-66.839843-59.769531-70.238281zm0 0"/><path d="m417.105469 320.039062c9.4375 1.875 15.894531 10.628907 14.894531 20.199219-.097656 2.121094.652344 4.195313 2.082031 5.761719 1.433594 1.570312 3.429688 2.503906 5.550781 2.597656h.367188c4.28125.007813 7.808594-3.359375 8-7.636718 1.394531-18.265626-11.707031-34.441407-29.863281-36.867188-.722657-.054688-1.402344-.054688-2.074219-.054688-4.417969 0-8 3.582032-8 8 0 4.417969 3.582031 8 8 8zm0 0"/></svg>