<svg height="480pt" viewBox="0 0 480.01401 480" width="480pt" xmlns="http://www.w3.org/2000/svg"><path d="m336 184.007812c0-4.417968-3.582031-8-8-8-8.835938 0-16-7.164062-16-16 0-4.417968-3.582031-8-8-8s-8 3.582032-8 8c0 17.671876 14.328125 32 32 32 4.417969 0 8-3.582031 8-8zm0 0"/><path d="m479.039062 252.757812c-2.9375-10.925781-12.160156-19.011718-23.378906-20.488281-11.21875-1.480469-22.222656 3.9375-27.890625 13.730469l-33.496093 58.007812h-42.273438v-84.703124c15.175781-6.191407 27.414062-17.945313 34.214844-32.859376 10.957031 12.5 28.523437 16.882813 44.066406 10.992188 15.542969-5.886719 25.796875-20.808594 25.71875-37.429688-.09375-61.390624-43.710938-114.085937-104-125.65625v-10.34375c0-13.253906-10.746094-23.9999995-24-23.9999995s-24 10.7460935-24 23.9999995v10.34375c-60.289062 11.570313-103.90625 64.265626-104 125.65625-.058594 16.613282 10.199219 31.519532 25.738281 37.398438 15.539063 5.878906 33.09375 1.492188 44.046875-11 6.792969 14.929688 19.03125 26.695312 34.214844 32.898438v84.703124h-8c-17.671875 0-32 14.324219-32 32v13.757813h-144c-15.464844 0-28 12.539063-28 28 0 15.464844 12.535156 28 28 28h13.742188c-3.738282 5.347656-5.746094 11.714844-5.742188 18.242187 0 4.417969 3.582031 8 8 8s8-3.582031 8-8c0-8.835937 7.164062-16 16-16s16 7.164063 16 16c0 4.417969 3.582031 8 8 8s8-3.582031 8-8c-.003906-6.53125-2.019531-12.902343-5.777344-18.25h155.554688c-3.757813 5.347657-5.773438 11.71875-5.777344 18.25 0 4.417969 3.582031 8 8 8s8-3.582031 8-8c0-8.835937 7.164062-16 16-16s16 7.164063 16 16c0 4.417969 3.582031 8 8 8s8-3.582031 8-8c-.03125-7.210937-2.519531-14.195312-7.054688-19.800781 5.925782-2.027343 11.011719-5.964843 14.453126-11.199219.324218-.382812.613281-.789062.867187-1.21875l68-117.78125c3.722656-6.429687 4.722656-14.078124 2.773437-21.25zm-94.007812 67.25-17.175781 29.757813h-15.855469v-29.757813zm-65.03125 29.757813v-29.757813h16v29.757813zm120-189.757813c0 13.253907-10.746094 24-24 24s-24-10.746093-24-24c0-44.472656-10.808594-82.9375-27.550781-105.792968 45.144531 15.570312 75.472656 58.035156 75.550781 105.792968zm-120-136c0-4.417968 3.582031-8 8-8s8 3.582032 8 8v8.414063c-2.65625-.167969-5.296875-.414063-8-.414063s-5.34375.238282-8 .40625zm-80 160c-13.253906 0-24-10.746093-24-24 .082031-47.753906 30.40625-90.214843 75.550781-105.785156-16.742187 22.855469-27.550781 61.320313-27.550781 105.785156 0 13.253907-10.746094 24-24 24zm40-24c0-66 25.296875-112 48-112s48 46 48 112c0 26.507813-21.492188 48-48 48s-48-21.492187-48-48zm40 63.445313c5.308594.738281 10.691406.738281 16 0v80.554687h-16zm-40 112.554687c0-8.835937 7.164062-16 16-16h8v29.757813h-24zm182.398438-70.015624-67.375 116.71875c-.253907.316406-.484376.648437-.6875 1-2.097657 3.738281-6.050782 6.054687-10.335938 6.054687h-264c-6.628906 0-12-5.371094-12-12 0-6.625 5.371094-12 12-12h252.480469c2.859375 0 5.5-1.523437 6.925781-4l62.195312-107.765625c3.3125-5.738281 10.652344-7.707031 16.390626-4.394531 5.710937 3.335937 7.671874 10.648437 4.390624 16.394531zm0 0"/><path d="m432.265625 444.101562c-26.574219 26.515626-69.59375 26.515626-96.167969 0-32.828125-32.75-85.96875-32.75-118.792968 0-26.574219 26.515626-69.59375 26.515626-96.167969 0-32.828125-32.75-85.96875-32.75-118.792969 0-3.03125 3.140626-2.988281 8.128907.097656 11.214844 3.085938 3.085938 8.074219 3.128906 11.214844.097656 26.570312-26.519531 69.597656-26.519531 96.167969 0 32.824219 32.753907 85.96875 32.753907 118.792969 0 26.570312-26.519531 69.597656-26.519531 96.167968 0 32.828125 32.746094 85.964844 32.746094 118.789063 0 3.035156-3.136718 2.988281-8.128906-.09375-11.214843-3.085938-3.085938-8.078125-3.128907-11.214844-.097657zm0 0"/><path d="m88 128.007812c22.089844 0 40-17.910156 40-40 0-22.09375-17.910156-40-40-40s-40 17.90625-40 40c.027344 22.078126 17.917969 39.972657 40 40zm0-64c13.253906 0 24 10.746094 24 24 0 13.253907-10.746094 24-24 24s-24-10.746093-24-24c0-13.253906 10.746094-24 24-24zm0 0"/><path d="m32 272.007812c9.226562-.03125 17.980469-4.066406 24-11.058593 6 7.019531 14.769531 11.058593 24 11.058593s18-4.039062 24-11.058593c6 7.019531 14.769531 11.058593 24 11.058593s18-4.039062 24-11.058593c6.019531 6.992187 14.773438 11.027343 24 11.058593 4.417969 0 8-3.582031 8-8 0-4.417968-3.582031-8-8-8-8.835938 0-16-7.164062-16-16 0-4.417968-3.582031-8-8-8s-8 3.582032-8 8c0 8.835938-7.164062 16-16 16s-16-7.164062-16-16c0-4.417968-3.582031-8-8-8s-8 3.582032-8 8c0 8.835938-7.164062 16-16 16s-16-7.164062-16-16c0-4.417968-3.582031-8-8-8s-8 3.582032-8 8c0 8.835938-7.164062 16-16 16s-16-7.164062-16-16c0-4.417968-3.582031-8-8-8s-8 3.582032-8 8c0 17.671876 14.328125 32 32 32zm0 0"/><path d="m96 24.015625c0 4.417969-3.582031 8-8 8s-8-3.582031-8-8 3.582031-8 8-8 8 3.582031 8 8zm0 0"/><path d="m96 152.015625c0 4.417969-3.582031 8-8 8s-8-3.582031-8-8 3.582031-8 8-8 8 3.582031 8 8zm0 0"/><path d="m32 88.015625c0 4.417969-3.582031 8-8 8s-8-3.582031-8-8 3.582031-8 8-8 8 3.582031 8 8zm0 0"/><path d="m160 88.015625c0 4.417969-3.582031 8-8 8s-8-3.582031-8-8 3.582031-8 8-8 8 3.582031 8 8zm0 0"/><path d="m141.257812 42.757812c0 4.417969-3.582031 8-8 8-4.421874 0-8-3.582031-8-8 0-4.417968 3.578126-8 8-8 4.417969 0 8 3.582032 8 8zm0 0"/><path d="m50.742188 133.269531c0 4.417969-3.578126 8-8 8-4.417969 0-8-3.582031-8-8s3.582031-8 8-8c4.421874 0 8 3.582031 8 8zm0 0"/><path d="m50.742188 42.757812c0 4.417969-3.578126 8-8 8-4.417969 0-8-3.582031-8-8 0-4.417968 3.582031-8 8-8 4.421874 0 8 3.582032 8 8zm0 0"/><path d="m141.257812 133.269531c0 4.417969-3.582031 8-8 8-4.421874 0-8-3.582031-8-8s3.578126-8 8-8c4.417969 0 8 3.582031 8 8zm0 0"/></svg>