<svg height="512" viewBox="0 0 512 512" width="512" xmlns="http://www.w3.org/2000/svg"><g id="Temperature_Control" data-name="Temperature Control"><g id="Outline"><path d="m269.718 276.228a8.005 8.005 0 0 0 -4.363-12.492c-32.77-8.762-70.436-9.562-97.355 11.311v-26.267c11.1 2.821 24.229.011 35.04-3.764 24.366-8.511 47.212-35.808 48.172-36.965a8 8 0 0 0 -4.518-12.939c-26.569-5.573-55.886-5-78.694 9.515v-14.568c16.022-7.6 25.189-39.121-2.8-74.982a8 8 0 0 0 -12.691.1c-26.861 35.586-18.522 68.477-.512 75.45v16.142c-22.562-17.717-55.3-18.384-83.3-12.146a8 8 0 0 0 -4.482 12.835c18.071 22.392 44.416 42.394 72.97 42.394a35.56 35.56 0 0 0 14.815-2.876v28.638c-26.727-21.39-65-20.727-98.065-11.878a8 8 0 0 0 -4.363 12.492c37.876 51.118 81.785 57.957 102.428 47.979v31.407c-26.76-21.416-65.031-20.7-98.065-11.878a8 8 0 0 0 -4.363 12.492c20.38 27.5 49.808 51.766 83.974 51.766a42.25 42.25 0 0 0 18.454-3.787v44.139a80.179 80.179 0 0 0 -66.039 47.654h-13.961a8 8 0 0 0 0 16h176a8 8 0 0 0 0-16h-15.381a80.187 80.187 0 0 0 -64.619-47.513v-43.948c13.688 6.206 31.483 3.106 45.674-1.851 28.831-10.069 54.946-44.979 56.044-46.46a8.005 8.005 0 0 0 -4.363-12.492c-32.77-8.762-70.436-9.562-97.355 11.311v-30.508c21.215 9.619 64.51 1.906 101.718-48.311zm-71.87 1.145c15.591-5.444 37.292-3.147 50.828-.8-9.135 10.261-24.687 25.57-40.278 31.014-45.463 15.875-55.943-14.362-10.55-30.214zm-29.848-51.208c4.42-7.48 21.679-18.165 46.938-18.165 4.853 0 9.548.291 13.679.684-7.962 7.67-19.51 17.264-30.852 21.226-16.829 5.877-26.706 4.2-29.765 1.533zm-50.447 3.745c-11.513-4.021-23.2-14.028-31.109-21.886 11.086-1.221 26.457-1.781 37.971 2.24 9.334 3.259 16.772 7.534 20.942 12.036 11.274 12.173-8.634 14.306-27.804 7.61zm-6.661 77.673c-15.592-5.444-31.143-20.754-40.278-31.014 13.538-2.343 35.24-4.64 50.828.8 45.442 15.873 34.892 46.085-10.55 30.214zm0 80c-15.592-5.444-31.143-20.754-40.278-31.014 13.538-2.343 35.24-4.64 50.828.8 45.471 15.884 34.848 46.073-10.55 30.214zm40.224-229.7c-.057-7.207 3.928-16.241 7.9-23.3 4.083 6.993 8.214 15.962 8.272 23.169.195 24.657-15.979 23.971-16.172.134zm63.602 338.117h-110.856c24.645-42.608 86.214-42.6 110.856 0zm-16.87-138.627c15.591-5.444 37.292-3.147 50.828-.8-9.135 10.261-24.687 25.57-40.278 31.014-45.463 15.875-55.943-14.362-10.55-30.214z"/><circle cx="40" cy="504" r="8"/><circle cx="280" cy="504" r="8"/><path d="m448 268.116v-212.116a56 56 0 0 0 -112 0v16a8 8 0 0 0 8 8c18.144 0-3.489-29.1 19.72-52.286 25.072-25.099 68.28-7.185 68.28 28.286v8h-24a8 8 0 0 0 0 16h24v16h-40a8 8 0 0 0 0 16h40v16h-24a8 8 0 0 0 0 16h24c1.168 131.129-2.84 129.866 3.2 134.4a71.913 71.913 0 0 1 22.5 87.1 8 8 0 0 0 14.588 6.572 87.872 87.872 0 0 0 -24.288-103.956z"/><path d="m401.913 407.317c-72.965 10.191-112.467-84.335-53.108-128.921 6.008-4.511 2.034-4.189 3.195-142.4a8 8 0 0 0 -16 0v132.126c-68.227 56.413-19.066 167.235 68.127 155.041a8 8 0 1 0 -2.214-15.846z"/><path d="m416 283.43v-115.43a8 8 0 0 0 -8-8h-32a8 8 0 0 0 -8 8v115.708c-14.856 10.24-32.323 26.485-32 53.005a55.664 55.664 0 0 0 16.61 39.187c35.141 34.683 95.39 9.654 95.39-39.9 0-22.515-15.466-41.985-32-52.57zm-24 92.57a39.66 39.66 0 0 1 -40-39.484c-.2-16.068 8.546-28.966 28.352-41.823 6.634-4.3 2.294-3.252 3.645-118.693h16v111.983a8 8 0 0 0 4.171 7.025c13.406 7.305 27.832 23.25 27.832 40.992a40.046 40.046 0 0 1 -40 40z"/><circle cx="392" cy="336" r="8"/><circle cx="440" cy="400" r="8"/><circle cx="344" cy="104" r="8"/></g></g></svg>