<?xml version="1.0" encoding="iso-8859-1"?>
<!-- Generator: Adobe Illustrator 19.0.0, SVG Export Plug-In . SVG Version: 6.00 Build 0)  -->
<svg version="1.1" id="Layer_1" xmlns="http://www.w3.org/2000/svg" xmlns:xlink="http://www.w3.org/1999/xlink" x="0px" y="0px"
	 viewBox="0 0 512 512" style="enable-background:new 0 0 512 512;" xml:space="preserve">
<g>
	<g>
		<g>
			<path d="M320.044,55.872c0.619,5.867,4.971,8.619,7.552,10.261c4.309,2.731,14.4,9.131,14.4,40.533v64.021
				c0,5.888,3.52,10.261,9.408,10.261c0.341,0.299,0.832,1.152,1.216,2.005c-0.491,9.899-5.376,25.067-8.448,33.429
				c-6.251,4.16-12.843,13.013-12.843,28.949c0,12.096-4.139,17.536-7.808,22.336c-0.896,1.195-1.707,2.283-2.389,3.285
				c-3.264,4.907-1.941,11.52,2.965,14.805c4.864,3.243,11.499,1.963,14.784-2.944l1.6-2.197
				c4.565-5.973,12.181-15.979,12.181-35.285c0-7.552,2.261-10.667,2.581-10.987c3.328-0.811,6.037-3.2,7.317-6.379
				c1.195-2.923,11.435-29.077,11.435-46.635c0-0.875-0.107-1.728-0.32-2.581c-1.152-4.693-4.437-11.52-10.347-15.531v-56.555
				c0-34.368-10.496-48.469-21.568-56.64C339.692,33.472,321.943,0,256.662,0c-66.091,0-106.667,62.123-106.667,106.667v56.555
				c-5.909,4.011-9.173,10.859-10.347,15.531c-0.213,0.832-0.32,1.707-0.32,2.581c0,17.557,10.261,43.712,11.435,46.635
				c1.28,3.179,3.157,5.291,6.485,6.123c1.173,0.576,3.413,3.691,3.413,11.243c0,20.267,15.211,42.795,31.552,57.771
				c-2.24,13.973-12.651,50.816-34.901,60.117l-94.677,31.552c-24.341,8.107-42.581,27.819-48.832,52.736L0.982,498.752
				c-1.429,5.717,2.027,11.499,7.765,12.928c0.875,0.213,1.728,0.32,2.581,0.32c4.8,0,9.152-3.221,10.325-8.107l12.821-51.243
				c4.437-17.792,17.493-31.893,34.88-37.675l95.403-31.829c36.928-15.381,49.237-70.955,49.237-84.501
				c0-3.179-1.429-6.187-3.883-8.213c-13.973-11.563-28.117-30.763-28.117-45.12c0-15.936-6.592-24.768-12.843-28.949
				c-3.051-8.341-7.979-23.573-8.448-33.493c0.277-0.811,0.469-1.536-0.043-1.536c5.888,0,10.667-4.779,10.667-10.667v-64
				c0-34.795,33.259-85.333,85.333-85.333c49.536,0,62.336,21.931,63.829,30.379C320.086,53.163,319.894,54.613,320.044,55.872z"/>
			<path d="M500.673,362.219h-10.667v-10.667c0-41.173-33.493-74.667-74.667-74.667s-74.667,33.493-74.667,74.667v10.667h-10.667
				c-5.888,0-10.667,4.779-10.667,10.667v128c0,5.888,4.779,10.667,10.667,10.667h170.667c5.888,0,10.667-4.779,10.667-10.667v-128
				C511.34,366.997,506.561,362.219,500.673,362.219z M362.007,351.552c0-29.397,23.915-53.333,53.333-53.333
				s53.333,23.936,53.333,53.333v10.667H362.007V351.552z M490.007,490.219H340.673V383.552h149.333V490.219z"/>
			<path d="M404.673,444.288v13.931c0,5.888,4.779,10.667,10.667,10.667s10.667-4.779,10.667-10.667v-13.931
				c6.272-3.712,10.667-10.261,10.667-18.069c0-11.776-9.557-21.333-21.333-21.333s-21.333,9.557-21.333,21.333
				C394.007,434.027,398.423,440.576,404.673,444.288z"/>
		</g>
	</g>
</g>
<g>
</g>
<g>
</g>
<g>
</g>
<g>
</g>
<g>
</g>
<g>
</g>
<g>
</g>
<g>
</g>
<g>
</g>
<g>
</g>
<g>
</g>
<g>
</g>
<g>
</g>
<g>
</g>
<g>
</g>
</svg>
