<svg xmlns="http://www.w3.org/2000/svg" id="wallet_2_" width="57.263" height="55.819" data-name="wallet (2)" viewBox="0 0 57.263 55.819">
    <defs>
        <style>
            .cls-1{fill:#d4e1f4}.cls-2{fill:#00c395}.cls-3{fill:#46bda2}.cls-4{fill:#ed1846}
        </style>
    </defs>
    <g id="Group_49" data-name="Group 49" transform="translate(7.839 1.901)">
        <path id="Path_540" d="M253.274 19.234l3.3-3.3 6.094 6.094-7.407-7.406-3.3 3.3 4.11 4.11zm0 0" class="cls-1" data-name="Path 540" transform="translate(-226.729 -14.625)"/>
        <path id="Path_541" d="M164.692 16.676l-7.137 7.137h2.625l5.82-5.825zm0 0" class="cls-1" data-name="Path 541" transform="translate(-144.715 -16.407)"/>
        <path id="Path_542" d="M298.329 83.051h-.029l.012.012zm0 0" class="cls-1" data-name="Path 542" transform="translate(-266.99 -74.07)"/>
        <path id="Path_543" d="M165.392 83.051h-.025l.012.012zm0 0" class="cls-1" data-name="Path 543" transform="translate(-151.502 -74.07)"/>
        <path id="Path_544" d="M62.352 87.514a4.468 4.468 0 0 1 4.463-4.463h-2.626a4.468 4.468 0 0 0-4.463 4.463v14.694q1.337-.823 2.625-1.721zm0 0" class="cls-1" data-name="Path 544" transform="translate(-59.727 -74.07)"/>
        <path id="Path_545" d="M119.906 213.193a.788.788 0 0 0-.476-.723l-.078-.033a56.573 56.573 0 0 1-11.574-6.7.787.787 0 0 0-.945 0c-.278.208-.559.412-.841.615a56.525 56.525 0 0 0 10.735 6.086l.077.033a.788.788 0 0 1 .476.723v6.853a12.508 12.508 0 0 1-1.065 5.1h2.625a12.509 12.509 0 0 0 1.065-5.1zm0 0" class="cls-1" data-name="Path 545" transform="translate(-99.92 -180.514)"/>
        <path id="Path_546" d="M308.306 181.234a4.937 4.937 0 0 0-4.762 6.253 4.949 4.949 0 0 1 4.762-3.627h10.93v-2.625zm0 0" class="cls-1" data-name="Path 546" transform="translate(-271.387 -159.366)"/>
    </g>
    <path id="Path_547" d="M97.938 22.333h-1.385v-6.849a6.045 6.045 0 0 0-6.038-6.038h-3.052L78.386.37a.788.788 0 0 0-1.114 0l-3.853 3.853L69.835.64a.788.788 0 0 0-1.114 0l-8.806 8.807h-6.151a6.044 6.044 0 0 0-6.038 6.038v16.084H49.3V15.484a4.468 4.468 0 0 1 4.463-4.463h6.778l.012.012.012-.012H77.99l.012.012.012-.012h12.5a4.468 4.468 0 0 1 4.463 4.463v6.849H86.22a6.515 6.515 0 0 0 0 13.03h8.758v6.849a4.468 4.468 0 0 1-4.463 4.463H64.323v1.575h26.192a6.045 6.045 0 0 0 6.038-6.038v-6.849h1.385a.788.788 0 0 0 .788-.788V23.121a.788.788 0 0 0-.788-.788zM77.829 2.041l7.407 7.406h-6.593l-4.11-4.11zM62.142 9.447l7.137-7.137 7.137 7.137zM97.15 33.788H86.22a4.94 4.94 0 0 1 0-9.88h10.93zm0 0" class="cls-2" data-name="Path 547" transform="translate(-41.462 -.139)"/>
    <path id="Path_548" d="M320.277 199.444a2.935 2.935 0 1 0 2.935-2.936 2.935 2.935 0 0 0-2.935 2.936zm2.935-1.361a1.36 1.36 0 1 1-1.36 1.361 1.36 1.36 0 0 1 1.36-1.361zm0 0" class="cls-3" data-name="Path 548" transform="translate(-278.239 -170.734)"/>
    <path id="Path_549" d="M24.725 212.469l-.078-.033a56.574 56.574 0 0 1-11.574-6.7.787.787 0 0 0-.945 0 56.581 56.581 0 0 1-11.575 6.7l-.078.033a.788.788 0 0 0-.475.723v6.853c0 4.433 2.119 8.327 6.126 11.262a21.6 21.6 0 0 0 6.048 3.093.75.75 0 0 0 .221.032.794.794 0 0 0 .214-.029 22.665 22.665 0 0 0 6.249-3.088c4.149-2.933 6.342-6.83 6.342-11.269v-6.852a.789.789 0 0 0-.475-.725zm-1.1 7.576a11.13 11.13 0 0 1-3.2 7.853.787.787 0 0 0-1.572.058v.722a.785.785 0 0 0 .189.511q-.5.416-1.059.812a21.783 21.783 0 0 1-5.586 2.816 20.721 20.721 0 0 1-5.38-2.81q-.491-.361-.939-.741a.786.786 0 0 0 .265-.588v-.722a.788.788 0 0 0-1.575 0v.063a11.373 11.373 0 0 1-3.195-7.974v-6.336a58.145 58.145 0 0 0 11.027-6.364 58.161 58.161 0 0 0 11.025 6.364zm0 0" class="cls-4" data-name="Path 549" transform="translate(0 -178.612)"/>
    <path id="Path_550" d="M90.788 370.086a.788.788 0 0 0-.788.787v.722a.788.788 0 1 0 1.575 0v-.722a.787.787 0 0 0-.787-.787zm0 0" class="cls-4" data-name="Path 550" transform="translate(-78.187 -321.529)"/>
    <path id="Path_551" d="M108.675 370.086a.788.788 0 0 0-.788.787v.722a.788.788 0 1 0 1.575 0v-.722a.787.787 0 0 0-.787-.787zm0 0" class="cls-4" data-name="Path 551" transform="translate(-93.726 -321.529)"/>
    <path id="Path_552" d="M125.773 370.873v.722a.788.788 0 1 0 1.575 0v-.722a.788.788 0 0 0-1.575 0zm0 0" class="cls-4" data-name="Path 552" transform="translate(-109.265 -321.529)"/>
    <path id="Path_553" d="M72.9 370.086a.788.788 0 0 0-.788.787v.722a.788.788 0 1 0 1.575 0v-.722a.787.787 0 0 0-.787-.787zm0 0" class="cls-4" data-name="Path 553" transform="translate(-62.648 -321.529)"/>
    <path id="Path_554" d="M55.014 370.086a.788.788 0 0 0-.788.787v.722a.788.788 0 1 0 1.575 0v-.722a.787.787 0 0 0-.787-.787zm0 0" class="cls-4" data-name="Path 554" transform="translate(-47.109 -321.529)"/>
    <path id="Path_555" d="M63.306 293.84a.788.788 0 0 0-1.114 1.114l2.675 2.674a.787.787 0 0 0 1.114 0l4.7-4.7a.788.788 0 0 0-1.114-1.114l-4.145 4.145zm0 0" class="cls-4" data-name="Path 555" transform="translate(-53.837 -253.329)"/>
</svg>
