<svg height="512pt" viewBox="0 0 512 512.05185" width="512pt" xmlns="http://www.w3.org/2000/svg"><path d="m352 72h32v-40h-16v24h-32v128h32v24h16v-40h-32zm0 0"/><path d="m464 92c-.023438-19.871094-16.128906-35.976562-36-36h-12v-24h-16v40h28c11.046875 0 20 8.957031 20 20 0 11.046875-8.953125 20-20 20v16c11.046875 0 20 8.957031 20 20 0 11.046875-8.953125 20-20 20h-28v40h16v-24h12c15.25-.011719 28.839844-9.628906 33.917969-24.011719 5.078125-14.378906.542969-30.402343-11.320313-39.988281 8.480469-6.820312 13.40625-17.117188 13.402344-28zm0 0"/><path d="m512 120c.066406-41.828125-21.683594-80.660156-57.386719-102.453125s-80.1875-23.390625-117.359375-4.210937c-97.792968-32.71875-205.671875-3.5625-273.671875 73.960937-68.003906 77.523437-82.851562 188.277344-37.671875 280.976563l-14.230468 14.167968c-15.539063 15.65625-15.539063 40.917969 0 56.574219l45.28125 45.28125c15.65625 15.554687 40.933593 15.554687 56.589843 0l9.601563-9.597656c91.78125 55.925781 208.738281 48.503906 292.71875-18.574219 83.976562-67.082031 117.058594-179.507812 82.792968-281.378906 8.753907-16.921875 13.328126-35.691406 13.335938-54.746094zm-496 136c-.054688-51.957031 16.84375-102.511719 48.128906-144h105.230469c4.242187-.003906 8.316406 1.683594 11.304687 4.699219 3.328126 3.273437 5.023438 7.859375 4.632813 12.511719-1.113281 8.636718-8.589844 15.03125-17.296875 14.789062h-64c-21.371094-.023438-38.984375 16.753906-40 38.097656-.464844 10.644532 3.492188 21.007813 10.933594 28.632813 8.066406 8.445312 19.226562 13.238281 30.90625 13.269531h86.160156c17.261719 0 32.570312 11.089844 37.953125 27.488281l-64.800781 12.96875 27.648437 27.472657-12.113281 12.070312h-76.6875c-21.460938-.007812-39.085938 16.953125-39.898438 38.402344-.808593 21.445312 15.488282 39.6875 36.890626 41.296875l-27.792969 27.789062c-36.964844-43.367187-57.246094-98.5-57.199219-155.488281zm148.6875 64-48 48h-12.6875c-13.253906 0-24-10.742188-24-24 0-13.253906 10.746094-24 24-24zm-141.671875 107.707031c-9.320313-9.402343-9.320313-24.554687 0-33.953125l10.75-10.703125c8.085937 14.121094 17.5 27.441407 28.113281 39.773438l-4.878906 4.882812c-9.519531 9.054688-24.46875 9.054688-33.984375 0zm79.265625 45.253907c-9.402344 9.34375-24.585938 9.34375-33.984375 0l-22.65625-22.632813c8.585937-1.191406 16.542969-5.164063 22.65625-11.3125l147.101563-147.101563-17.703126-17.648437 86.664063-17.34375-17.351563 86.695313-17.726562-17.726563zm153.71875 23.039062c-42.601562-.003906-84.433594-11.386719-121.160156-32.972656l114.441406-114.515625 27.519531 27.5625 28-139.5625-59.121093 11.832031c-6.9375-23.882812-28.808594-40.320312-53.679688-40.34375h-86.160156c-7.300782-.027344-14.277344-3.027344-19.320313-8.308594-4.398437-4.464844-6.757812-10.542968-6.527343-16.800781.59375-12.824219 11.171874-22.90625 24.007812-22.890625h64c17.109375.320312 31.589844-12.566406 33.253906-29.597656.667969-8.878906-2.390625-17.628906-8.441406-24.15625-6.054688-6.53125-14.550781-10.242188-23.453125-10.246094h-92.054687c60.558593-67.933594 154.433593-95.597656 242.160156-71.367188-48.359375 36.6875-61.660156 103.730469-30.972656 156.097657 30.691406 52.371093 95.683593 73.53125 151.324218 49.269531.046875.671875.183594 1.328125.183594 2 0 17.675781-14.328125 32-32 32h-32c-17.671875 0-32 14.328125-32 32 0 17.675781 14.328125 32 32 32h32c8.835938 0 16 7.164062 16 16 0 8.839844-7.164062 16-16 16h-64c-22.09375 0-40 17.910156-40 40 0 22.09375 17.90625 40 40 40h65.871094c-43.089844 36.214844-97.585938 56.046875-153.871094 56zm171.199219-72h-83.199219c-13.253906 0-24-10.742188-24-24 0-13.253906 10.746094-24 24-24h64c17.671875 0 32-14.324219 32-32 0-17.671875-14.328125-32-32-32h-32c-8.835938 0-16-7.160156-16-16 0-8.835938 7.164062-16 16-16h32c26.5-.023438 47.972656-21.5 48-48-.039062-3.347656-.441406-6.679688-1.191406-9.941406 12.570312-7.765625 23.605468-17.769532 32.558594-29.519532 22.765624 82.363282-.175782 170.613282-60.167969 231.460938zm-35.199219-200c-57.4375 0-104-46.5625-104-104s46.5625-104 104-104 104 46.5625 104 104c-.066406 57.410156-46.589844 103.933594-104 104zm0 0"/><path d="m368 88h48v16h-48zm0 0"/><path d="m368 136h48v16h-48zm0 0"/></svg>