<svg height="480pt" viewBox="0 0 480.00163 480" width="480pt" xmlns="http://www.w3.org/2000/svg"><path d="m96 240c-.019531 53.488281 29.621094 102.578125 76.964844 127.464844 47.347656 24.886718 104.589844 21.46875 148.636718-8.878906 2.429688-1.589844 3.808594-4.375 3.601563-7.273438-.207031-2.894531-1.972656-5.453125-4.605469-6.679688-2.636718-1.222656-5.726562-.925781-8.078125.785157-8.5625 5.898437-17.8125 10.734375-27.542969 14.398437 20.136719-24.289062 33.421876-64.742187 34.808594-111.816406h47.023438c-3.488282 13.144531-15.367188 25.601562-34.550782 35.769531-2.589843 1.304688-4.265624 3.902344-4.390624 6.796875-.125 2.894532 1.320312 5.628906 3.785156 7.152344s5.558594 1.59375 8.089844.1875c7.199218-3.761719 13.988281-8.257812 20.257812-13.417969-1.984375 5.402344-4.335938 10.660157-7.039062 15.738281-2.085938 3.894532-.617188 8.746094 3.277343 10.832032 3.898438 2.082031 8.75.613281 10.832031-3.28125 28.199219-52.894532 20.683594-117.71875-18.867187-162.757813-39.550781-45.039062-102.863281-60.867187-158.953125-39.742187-56.09375 21.125-93.234375 74.785156-93.25 134.722656zm92.542969 74.832031c14.316406 2.90625 28.855469 4.5625 43.457031 4.953125v47.046875c-17.601562-4.632812-33.214844-24.214843-43.457031-52zm43.457031-11.039062c-16.527344-.484375-32.957031-2.765625-48.992188-6.800781-4.035156-16.035157-6.316406-32.460938-6.800781-48.992188h55.792969zm-118.832031-71.792969c4.632812-17.597656 24.214843-33.214844 52-43.457031-2.90625 14.316406-4.5625 28.855469-4.953125 43.457031zm47.046875 16c.390625 14.601562 2.046875 29.140625 4.953125 43.457031-27.785157-10.238281-47.367188-25.839843-52-43.457031zm16-16c.484375-16.527344 2.765625-32.957031 6.800781-48.992188 16.035156-4.035156 32.457031-6.3125 48.984375-6.800781v55.792969zm12.335937-66.832031c10.242188-27.78125 25.839844-47.367188 43.457031-52v47.050781c-14.605468.386719-29.148437 2.042969-43.464843 4.949219zm102.914063 0c-14.316406-2.90625-28.859375-4.5625-43.464844-4.949219v-47.050781c17.601562 4.632812 33.214844 24.21875 43.457031 52zm-96.542969-44.800781c-11.507813 14.703124-20.023437 31.515624-25.066406 49.488281-17.972657 5.042969-34.785157 13.558593-49.488281 25.066406 13.03125-34.378906 40.167968-61.523437 74.542968-74.5625zm-74.5625 164.722656c14.703125 11.503906 31.515625 20.019531 49.488281 25.0625 5.042969 17.976562 13.558594 34.789062 25.0625 49.488281-34.375-13.03125-61.515625-40.175781-74.550781-74.550781zm127.640625 81.742187v-47.109375c7.945312-.28125 16.128906-.851562 25.023438-1.992187 4.386718-.566407 7.480468-4.582031 6.917968-8.964844-.566406-4.386719-4.582031-7.480469-8.964844-6.917969-8.191406 1.066406-15.695312 1.601563-22.976562 1.863282v-55.710938h24c4.417969 0 8-3.582031 8-8s-3.582031-8-8-8h-24v-55.792969c16.527344.488281 32.957031 2.765625 48.992188 6.800781 4.699218 18.632813 7.050781 37.777344 7.007812 56.992188 0 64-24.921875 118.664062-56 126.832031zm66.832031-178.289062c27.785157 10.242187 47.367188 25.84375 52 43.457031h-47.046875c-.390625-14.601562-2.046875-29.140625-4.953125-43.457031zm44.800781 6.402343c-14.703124-11.507812-31.515624-20.023437-49.488281-25.066406-5.042969-17.972656-13.558593-34.785156-25.066406-49.484375 34.375 13.023438 61.519531 40.152344 74.5625 74.519531zm0 0"/><path d="m208 61.847656v26.152344c0 3.234375 1.949219 6.152344 4.9375 7.394531.96875.402344 2.011719.609375 3.0625.605469 2.121094 0 4.15625-.84375 5.65625-2.34375l29.65625-29.65625h12.6875c8.835938 0 16-7.164062 16-16v-32c0-8.835938-7.164062-16-16-16h-48c-8.835938 0-16 7.164062-16 16v32c.003906 5.714844 3.050781 10.992188 8 13.847656zm8-45.847656h48v32h-16c-2.121094 0-4.15625.84375-5.65625 2.34375l-18.34375 18.34375v-12.6875c0-4.417969-3.582031-8-8-8zm0 0"/><path d="m472 235.199219v-31.199219c0-4.417969-3.582031-8-8-8h-32c-4.417969 0-8 3.582031-8 8v10.242188l-18.527344 6.175781c-4.199218 1.394531-6.46875 5.929687-5.074218 10.125 1.398437 4.199219 5.933593 6.46875 10.128906 5.074219l13.472656-4.519532v4.101563l-7.839844 39.203125c-.480468 2.351562.121094 4.796875 1.640625 6.660156 1.519531 1.859375 3.796875 2.9375 6.199219 2.9375h48c2.402344 0 4.679688-1.078125 6.199219-2.9375 1.519531-1.863281 2.121093-4.308594 1.640625-6.660156zm-32-23.199219h16v16h-16zm-6.238281 56 4.796875-24h18.898437l4.800781 24zm0 0"/><path d="m286.96875 432.570312-80-32c-2.464844-.984374-5.257812-.683593-7.457031.804688-2.195313 1.488281-3.511719 3.972656-3.511719 6.625v64c0 4.417969 3.582031 8 8 8 1.015625.003906 2.023438-.1875 2.96875-.566406l80-32c3.042969-1.214844 5.039062-4.15625 5.039062-7.433594 0-3.273438-1.996093-6.21875-5.039062-7.429688zm-74.96875 27.613282v-40.367188l50.464844 20.183594zm0 0"/><path d="m8 192h8v24c0 4.417969 3.582031 8 8 8s8-3.582031 8-8v-24h8c4.417969 0 8-3.582031 8-8s-3.582031-8-8-8h-8v-8c0-4.417969 3.582031-8 8-8s8-3.582031 8-8-3.582031-8-8-8c-13.253906 0-24 10.746094-24 24v8h-8c-4.417969 0-8 3.582031-8 8s3.582031 8 8 8zm0 0"/><path d="m80 320v-32c0-13.253906-10.746094-24-24-24h-32c-13.253906 0-24 10.746094-24 24v32c0 13.253906 10.746094 24 24 24h32c13.253906 0 24-10.746094 24-24zm-16 0c0 4.417969-3.582031 8-8 8h-32c-4.417969 0-8-3.582031-8-8v-32c0-4.417969 3.582031-8 8-8h32c4.417969 0 8 3.582031 8 8zm0 0"/><path d="m48 304c0 4.417969-3.582031 8-8 8s-8-3.582031-8-8 3.582031-8 8-8 8 3.582031 8 8zm0 0"/><path d="m360 96c13.253906 0 24 10.746094 24 24 0 4.417969 3.582031 8 8 8s8-3.582031 8-8c-.027344-22.078125-17.917969-39.972656-40-40-4.417969 0-8 3.582031-8 8s3.582031 8 8 8zm0 0"/><path d="m360 64c30.910156.039062 55.960938 25.089844 56 56 0 4.417969 3.582031 8 8 8s8-3.582031 8-8c-.042969-39.746094-32.253906-71.957031-72-72-4.417969 0-8 3.582031-8 8s3.582031 8 8 8zm0 0"/><path d="m360 32c48.578125.058594 87.941406 39.421875 88 88 0 4.417969 3.582031 8 8 8s8-3.582031 8-8c-.058594-57.414062-46.585938-103.941406-104-104-4.417969 0-8 3.582031-8 8s3.582031 8 8 8zm0 0"/><path d="m173.335938 428.386719c-35.910157-12.671875-67.460938-35.328125-90.9375-65.3125-2.71875-3.484375-7.75-4.097657-11.230469-1.378907-3.480469 2.722657-4.097657 7.75-1.375 11.234376 25.351562 32.382812 59.421875 56.851562 98.207031 70.535156 4.148438 1.414062 8.660156-.769532 10.125-4.898438 1.460938-4.128906-.667969-8.667968-4.78125-10.179687zm0 0"/><path d="m60.488281 134.738281c3.714844 2.382813 8.65625 1.308594 11.046875-2.402343 25.023438-39.074219 62.808594-68.28125 106.929688-82.648438 3.976562-1.519531 6.066406-5.886719 4.753906-9.9375-1.3125-4.054688-5.570312-6.363281-9.683594-5.261719-47.636718 15.5-88.433594 47.015625-115.464844 89.191407-2.386718 3.722656-1.304687 8.671874 2.417969 11.058593zm0 0"/><path d="m437.953125 304.496094c-4.144531-1.527344-8.742187.59375-10.273437 4.738281-19.34375 52.144531-59.449219 93.929687-110.757813 115.398437-3.5 1.480469-5.476563 5.214844-4.730469 8.941407.746094 3.722656 4.011719 6.410156 7.808594 6.425781 1.058594.003906 2.105469-.207031 3.078125-.613281 55.410156-23.183594 98.722656-68.308594 119.617187-124.617188 1.527344-4.148437-.597656-8.746093-4.742187-10.273437zm0 0"/></svg>